<svg xmlns="http://www.w3.org/2000/svg" viewBox="0 0 282.96 282.96"><defs><style>.cls-1{fill:#a6a6a6;}.cls-2{fill:#fff;}</style></defs><title>accessibility-na</title><g id="Background"><path class="cls-1" d="M283.05,18.5A18.48,18.48,0,0,0,264.58,0h-246A18.49,18.49,0,0,0,.09,18.5v246A18.5,18.5,0,0,0,18.57,283h246a18.49,18.49,0,0,0,18.47-18.51Z" transform="translate(-0.09)"/></g><g id="Accessibility"><g id="Accessibility_Character" data-name="Accessibility Character"><path class="cls-2" d="M233.43,130a14.62,14.62,0,0,0-11.27-4.39l-50.93,2.83,28-31.91a17.15,17.15,0,0,0,3.59-16,14.54,14.54,0,0,0-6.52-9.24c-.1-.08-67-38.93-67-38.93a14.62,14.62,0,0,0-17.06,1.73L79.62,63.23A14.61,14.61,0,0,0,99.07,85l24.76-22.09,20.48,11.89L108.17,116A74.44,74.44,0,0,0,69.11,135.3L88,154.17A48,48,0,0,1,155.79,222l18.87,18.88a74.68,74.68,0,0,0,12.68-84l19.71-1.1-4.8,58.82a14.62,14.62,0,0,0,13.38,15.74c.4,0,.8.05,1.2.05a14.62,14.62,0,0,0,14.54-13.42l6.15-75.51A14.59,14.59,0,0,0,233.43,130Z" transform="translate(-0.09)"/><path class="cls-2" d="M206.38,67.47A24.45,24.45,0,1,0,181.93,43,24.45,24.45,0,0,0,206.38,67.47Z" transform="translate(-0.09)"/><path class="cls-2" d="M120.26,237.72a48,48,0,0,1-39.73-75L61.45,143.68A74.67,74.67,0,0,0,166.28,248.5L147.2,229.43A47.74,47.74,0,0,1,120.26,237.72Z" transform="translate(-0.09)"/></g></g></svg>