<svg id="e-bikes-permitted" xmlns="http://www.w3.org/2000/svg" viewBox="0 0 283.14 282.44"><defs><style>.cls-1{fill:#4e6086;}.cls-2{fill:#fff;}</style></defs><title>e-bikes-permitted</title><g id="background"><path class="cls-1" d="M283.14,18.46A18.47,18.47,0,0,0,264.66,0H18.49A18.48,18.48,0,0,0,0,18.46V264a18.5,18.5,0,0,0,18.49,18.48H264.66A18.48,18.48,0,0,0,283.14,264Z" transform="translate(0 0)"/></g><g id="e-bike"><path class="cls-2" d="M39.45,179.32A35.8,35.8,0,0,0,75,241.48l.14-.08a35.8,35.8,0,0,0-35.54-62.16l-.13.08m-4.53-7.89a45,45,0,1,1-16.37,61.4,45,45,0,0,1,16.37-61.4" transform="translate(0 0)"/><path class="cls-2" d="M185,179.43a35.53,35.53,0,1,0,17.84-4.8,35.15,35.15,0,0,0-17.84,4.8m-4.52-7.88a44.62,44.62,0,0,1,61,16.26l.11.19a44.78,44.78,0,1,1-77.35,45.14l-.11-.19a45,45,0,0,1,16.37-61.4" transform="translate(0 0)"/><path class="cls-2" d="M155.38,162,139,201.3l-29.54-27.81q-3.18-2.4-9.77,1l-9.42-10.05,1.79-4L155.38,162m7.18,5.44,14.15,18.25,7-5.87L165,156.23l-7.69-3-62.9-.17L100,139.57c.3-2-.84-3.52-3.43-4.6-1.88-2.41-1.25-3.81,1.9-4.18l15.76.68q4-2.9,1-6.61h-.14l-.14-.18-19.24-.61q-2.91-.19-7.68,5-4.14,4,.83,7,3.28,1.72,1.47,5.69l-6,15.61L74,183.61q-1.5,3.49-9.49,14.48l2.1,6.85,1.23-1.71.61,1.05q10.34-12.53,12.8-17.84l3.39-6.89.1.15L88,172.88l34.35,37.19c-2.07,2.09-2.55,4.09-1.44,6l9.86,11.07a9,9,0,0,0,7.52,3l2.17,8.62-2,.34.72,4.25,9.54-1.61-.71-4.26-2.83.48-1.3-8.33,7-.64c3.55-.75,5.1-2.69,4.65-5.84l13.14-2.25c-.22-.71-.41-1.42-.58-2.15s-.31-1.44-.43-2.17-.23-1.47-.3-2.2-.13-1.48-.16-2.22l-19,3a8.92,8.92,0,0,0-.52-3.2,9.51,9.51,0,0,0-.69-1.48,8.93,8.93,0,0,0-.95-1.33l16.51-41.7" transform="translate(0 0)"/><path class="cls-2" d="M228.78,87.2l6.44,6.47a18.82,18.82,0,0,0,1.44,1.24,17.4,17.4,0,0,0,14,3.23,16.08,16.08,0,0,0,1.69-.43,15.26,15.26,0,0,0,1.64-.6c.54-.23,1.06-.48,1.57-.76s1-.59,1.49-.91l7.48-6.83a.8.8,0,0,0,.13-.13.83.83,0,0,0,.09-.16.58.58,0,0,0,.06-.17,1,1,0,0,0,0-.55s-.05-.11-.08-.16l-.12-.15-5.89-6.21,11.6-11.76a1,1,0,0,0,.19-.3.84.84,0,0,0,.07-.35.89.89,0,0,0-.07-.36,1,1,0,0,0-.2-.3l-1.22-1.22-.14-.11a1.29,1.29,0,0,0-.16-.09l-.18,0a.92.92,0,0,0-.68.14.81.81,0,0,0-.14.12l-11.6,11.75L243.57,65.84l11.64-11.72a.84.84,0,0,0,.27-.65,1,1,0,0,0-.06-.35,1,1,0,0,0-.2-.3L254,51.59a1.21,1.21,0,0,0-.3-.2l-.17,0-.18,0-.18,0-.17,0a.51.51,0,0,0-.16.09l-.14.11L241.05,63.3l-6.14-5.71a.72.72,0,0,0-.15-.11.48.48,0,0,0-.16-.08l-.17,0h-.18l-.18,0-.17.06-.15.09-.14.12-6.82,7.3a17.68,17.68,0,0,0,2,22.27" transform="translate(0 0)"/><path class="cls-2" d="M72.85,233.57l-7.34-23.9-3.37,4.47-6.5-24-4.61,6L46,176.24a30.5,30.5,0,0,0-14.89,9.81L48.7,210.81,52,206.7l9.32,17.69,2.93-3.77,8.57,12.95" transform="translate(0 0)"/><path class="cls-2" d="M150.37,121.42,140,99.84,112.74,125.4a8.52,8.52,0,1,1-11.59-12.49,7.4,7.4,0,0,1,.82-.66l45.35-43.44a12.39,12.39,0,0,1,17.52.37,12.25,12.25,0,0,1,2.65,4.22c.12.3.22.59.31.9s.16.6.23.91.12.62.16.93.08.63.1.94l10.37,48.24q3.81,10-5.42,12.14l-41.78,13.12,13.4,36.61-10.4,24.89-2.61-17.55L129,192.67l-18.61-44.31a7.89,7.89,0,0,1-.48-1.59,8.31,8.31,0,0,1-.16-1.65,8.45,8.45,0,0,1,.19-1.66,8.15,8.15,0,0,1,2.45-4.26,7.61,7.61,0,0,1,1.34-1,8.32,8.32,0,0,1,1.51-.71l35.13-16.07" transform="translate(0 0)"/><path class="cls-2" d="M129.72,43.18l9.16,4.12,6.48,16,2.52,1.13a18.71,18.71,0,1,0-18.16-21.25" transform="translate(0 0)"/><path class="cls-2" d="M222.65,200.26H182.18a22.42,22.42,0,0,1,40.47,0m-42.71,9.84H234.5a32.09,32.09,0,1,0-2.8,13.18l-8.78-3.95a22.45,22.45,0,0,1-43-9.23" transform="translate(0 0)"/><path class="cls-2" d="M228.78,87.2l6.44,6.47-13,13.06a9.34,9.34,0,0,0,0,13.15,27.75,27.75,0,0,1,0,39.07l-13,13.05-6.44-6.47,13-13.06a18.54,18.54,0,0,0,0-26.11,18.54,18.54,0,0,1,0-26.11l13-13" transform="translate(0 0)"/><path class="cls-2" d="M167.49,149.44l-2.76,6.79-5.55-2.09,2.3-5.79a39,39,0,0,0-12.32-3.89l12.19-3.27a44.69,44.69,0,0,0,14.76-1q6.25,0,1.56,6.8-2.47,3-10.17,2.44" transform="translate(0 0)"/></g></svg>