<svg xmlns="http://www.w3.org/2000/svg" viewBox="0 0 283.14 282.44"><defs><style>.cls-1{fill:#4e6086;}.cls-2{fill:#fff;}</style></defs><title>interpretive-programs-outside</title><g id="Background"><path class="cls-1" d="M294.56,30.24a18.47,18.47,0,0,0-18.48-18.46H29.91A18.48,18.48,0,0,0,11.42,30.24V275.75a18.49,18.49,0,0,0,18.49,18.47H276.08a18.48,18.48,0,0,0,18.48-18.47Z" transform="translate(-11.42 -11.78)"/></g><g id="Marine-Accesible_Camping" data-name="Marine-Accesible Camping"><path class="cls-2" d="M153.16,96a15.28,15.28,0,1,0-15.27-15.26A15.27,15.27,0,0,0,153.16,96Z" transform="translate(-11.42 -11.78)"/><path class="cls-2" d="M80.13,192.59a15.29,15.29,0,1,0-15.27-15.28A15.29,15.29,0,0,0,80.13,192.59Z" transform="translate(-11.42 -11.78)"/><path class="cls-2" d="M129.49,192.59a15.29,15.29,0,1,0-15.29-15.28A15.29,15.29,0,0,0,129.49,192.59Z" transform="translate(-11.42 -11.78)"/><polygon class="cls-2" points="70.15 90.5 163.77 90.5 201.58 52.7 214.18 65.3 166.18 113.31 166.18 128.92 118.16 128.92 118.16 106.11 70.15 106.11 70.15 90.5"/><rect class="cls-2" x="49.18" y="186.53" width="38.41" height="43.2"/><rect class="cls-2" x="98.39" y="186.53" width="38.41" height="43.2"/><path class="cls-2" d="M225.86,192.59a15.29,15.29,0,1,1,15.28-15.28A15.29,15.29,0,0,1,225.86,192.59Z" transform="translate(-11.42 -11.78)"/><path class="cls-2" d="M176.5,192.59a15.29,15.29,0,1,1,15.29-15.28A15.29,15.29,0,0,1,176.5,192.59Z" transform="translate(-11.42 -11.78)"/><rect class="cls-2" x="195.57" y="186.53" width="38.41" height="43.2"/><rect class="cls-2" x="146.35" y="186.53" width="38.41" height="43.2"/></g></svg>