<svg xmlns="http://www.w3.org/2000/svg" viewBox="0 0 283.14 282.44"><defs><style>.cls-1{fill:#a7a5a5;}.cls-2{fill:#fff;}</style></defs><title>wilderness-camping-na</title><g id="Z_Base_layer_130mm" data-name="Z Base layer 130mm"><path class="cls-1" d="M283.14,18.46A18.47,18.47,0,0,0,264.66,0H18.49A18.48,18.48,0,0,0,0,18.46V264a18.49,18.49,0,0,0,18.49,18.48H264.66A18.48,18.48,0,0,0,283.14,264Z"/><path class="cls-1" d="M283.14,18.46A18.47,18.47,0,0,0,264.66,0H18.49A18.48,18.48,0,0,0,0,18.46V264a18.49,18.49,0,0,0,18.49,18.48H264.66A18.48,18.48,0,0,0,283.14,264Z"/></g><g id="Cycling"><polygon class="cls-2" points="12.59 133.55 101.56 23.92 169.06 91.42 202.06 58.42 260.06 116.42 270.57 106.34 270.57 257.91 12.57 258.51 12.59 133.55"/><polygon class="cls-1" points="48.73 248.81 241.86 248.81 241.86 230.98 214.48 230.98 145.53 111.35 76.35 230.95 48.73 230.95 48.73 248.81"/><polygon class="cls-2" points="145.53 172.06 115.19 229.98 175.4 229.98 145.53 172.06"/></g></svg>