<?xml version="1.0" encoding="utf-8"?>
<!-- Generator: Adobe Illustrator 22.1.0, SVG Export Plug-In . SVG Version: 6.00 Build 0)  -->
<svg version="1.1" id="Layer_4" xmlns="http://www.w3.org/2000/svg" xmlns:xlink="http://www.w3.org/1999/xlink" x="0px" y="0px"
	 viewBox="0 0 455.1 253.6" style="enable-background:new 0 0 455.1 253.6;" xml:space="preserve">
<style type="text/css">
	.st0{fill:"rgba(0,0,0,0.54)";}
</style>
<g>
	<g>
		<path class="st0" d="M33.3,165c-0.2-0.1-0.4-0.1-0.6-0.2c0,0.1,0,0.2,0,0.2C32.9,165.1,33.1,165,33.3,165c0-0.5-0.1-1.1-0.1-1.6
			c0.7-0.4,1.5-0.7,2-1.2c3.7-3.9,7.1-8.3,11.1-11.9c28.5-24.9,63.8-32.5,99.5-22.8c21.5,6.6,27,15,34.7,30.4
			c4.2,8.4,4.7,17.1,3.8,25.9c-0.6,5.8-7.1,16.3-10.9,19.2c-5.6,2.6-11.4,5.4-17.3,6.9c-7.2,1.8-14.6,2.4-22,3.6
			c-0.7,0.1-1.4,0.4-2.2,0.7c0.6,0.4,1.2,0.9,1.8,1.1c6.9,1.8,13.6,3.3,21.1,2.3c11.4-1.5,23.1-1.3,34.7-1.6
			c13.6-0.4,27.1-1.4,40.2-5.5c1.2-0.4,2.6,0.3,4,0.4c0.9,0.1,1.9-0.1,2.8-0.1c3.1-0.1,7.2-1.4,9.1,0.1c2,1.5,3.1,6.1,2.4,8.7
			c-0.6,2.1-4.3,4-6.9,4.7c-1.8,0.5-4.3-1.6-6.4-1.7c-3.6-0.1-7.2,0.6-10.8,1.1c-0.5,0.1-0.8,0.6-1.3,0.9c0.3,0.1,0.7,0.4,1,0.4
			c9.2,0.3,18.5,0.9,27.7,0.6c9.3-0.3,18.6-2.1,28-2.3c3-0.1,7,2.4,8.6,5c1.2,1.9,0.4,6.7-1.3,8.4c-2,2.1-6,2.9-9.1,3.2
			c-1.8,0.1-3.8-3-5.6-3c-10.8,0.2-21.5,0.8-32.3,1.5c-0.5,0-1.2,1.2-1.5,2c-0.9,2.3-1,5.2-2.5,6.9c-3.3,3.6-10.1,3.3-14.3,0.2
			c-0.9-0.6-1.9-1.5-2.8-1.5c-3-0.2-5.9-0.1-8.9,0.1c-8,0.4-16,1.5-24,1.3c-11.5-0.2-22.9-1.2-34.4-2.2c-9.5-0.8-18.9-2.4-28.4-3.3
			c-6.7-0.7-13.4-1.1-20.1-1.1c-11.3,0-22.7,1.2-34,0.3c-11.9-1-23.6-3.8-35.3-6c-9.8-1.8-19.3-4.2-26.1-12.4
			c-3.5-4.2-8.1-7.8-6.5-14.5c-0.6,2.7-1-12.3-0.4-9.7c-0.7-3,0.6-4.4,2.9-5.5c9.5-4.6,18.6-9.9,28.5-13.5c26.4-9.6,54.1-12.2,82-12
			c0.4,0,0.8-0.1,1.2-0.1c-0.4-0.1-0.7-0.2-1.1-0.2c-19.9-1.8-39.7-0.9-59.4,2.7c-17.7,3.2-34.6,9-50.2,18.2
			c-0.2,0.1-1.1-0.3-1.1-0.4c0.2-2.4,0.2-4.9,0.9-7.3c2-7.1,3.4-14.4,10.3-19.1c3.9-2.7,7.2-6.3,10.4-9.8
			c8.3-8.8,16.1-18.3,24.8-26.7c8.7-8.4,18.2-16.1,27.7-23.7c6.2-5,13-9.4,19.6-13.9c3.3-2.2,7-4,10.5-6c7.2-4.1,14.3-8.5,21.7-12.1
			c7.7-3.8,15.8-6.7,23.7-10c2.4-1,4.9-2.1,7.4-3c19.6-7.2,40.3-5.9,60.5-8.3c7.6-0.9,15.4-1.1,22.7-3.1c20-5.7,39.6-12.9,59.7-18.1
			c10.8-2.8,19.5-7.1,26.4-16.2c7.1-9.3,17.2-12.2,28.6-9.3c8.2,2.1,12.8,8.5,17.1,15c3.4,5.2,8,7.9,13.9,8.4
			c6.5,0.5,13,0.4,19.4,1.1c10,1.1,15,8.2,19,16.4c4,8.2,3.7,15.3-3.5,20.9c-8.3,6.4-17.5,11.8-26.8,16.5
			c-21.9,11.1-44.1,21.5-66.2,32.2c-0.6,0.3-1.1,0.9-1.6,1.3c0.7-0.2,1.4-0.3,2-0.6c22.9-8.9,45.9-17.4,68.5-26.8
			c7.9-3.3,14.9-8.7,22.3-13.2c0.6-0.3,1-0.9,1.5-1.3c0,0.8,0.2,1.5,0.1,2.3c-1.5,7.7-8,10.5-13.7,14.1c-11.2,7-22.5,13.9-33.5,21.2
			c-8.8,5.8-17.2,12-25.8,18c-0.2,0.3-0.3,0.6-0.5,0.9c-0.1,0-0.3,0-0.4,0.1c0-0.1,0.1-0.2,0.1-0.4c0.1,0.1,0.2,0.2,0.3,0.4
			c0.2-0.3,0.3-0.6,0.5-1c0.7-0.1,1.5,0.1,2-0.2c7-3.9,14-7.9,21-11.8c0.6-0.4,1.2-0.8,1.8-1.2c-0.1,0.8-0.1,1.6-0.4,2.3
			c-1.8,3.5-3.5,7.1-5.7,10.4c-10.7,16.3-29,22.5-44,33c-3.7,2.6-7.8,4.5-11.8,6.7c-3,1.7-6.2,5.3-8.2-1.1c-0.2-0.5-0.8-0.9-1-1.4
			c-0.4-1.6-1.1-3.4-0.7-4.8c0.8-3.1,3.7-5.9,0.5-9.1c-0.4-0.4-1-0.8-1.5-1.2c-0.2,0.6-0.6,1.3-0.6,1.9c-0.7,5.5-1.4,11-1.9,16.5
			c-0.1,0.9,0.5,2.4,1.2,2.9c7.8,4.5,16.4,7.9,23.3,13.4c7.7,6.2,15.3,5.8,23.7,3.8c7.3-1.7,14.6-3.4,21.9-5.2
			c4.2-1,8.2-2.8,12.4-3.3c2.4-0.3,6.4,0.4,7.3,2c1.3,2.4,1.2,6.3,0.1,8.8c-0.5,1.2-4.9,0.6-7.6,0.8c-0.6,0-1.2-0.5-1.7-0.3
			c-4.2,0.9-8.3,1.9-12.5,3c-1.2,0.3-2.4,0.9-3.5,1.3c1.3,0.3,2.6,0.9,3.9,1c20.5,1.4,40.9,2.4,61.3,4.1c7.1,0.6,14.1,2.5,20.9,4.7
			c3.1,1,5.4,4.6,3.5,8.1c-1.3,2.4-4.1,5-6.5,5.3c-2.3,0.3-5.1-2.1-7.6-3.5c-1.5-0.9-2.9-2.8-4.4-2.9c-19.7-0.8-39.5-1.4-59.3-2
			c-0.7,0-1.4,0.2-2,0.3c0.3,0.5,0.5,1.2,1,1.6c4.9,4,9.6,8.5,14.9,11.8c7.1,4.4,14.7,7.8,22,11.7c1.9,1,4.8,2.1,5.3,3.7
			c1.1,3.7,2.5,8.6,1,11.5c-1.4,2.6-6.4,3.7-10.1,4.5c-4,0.9-5.8-1.6-6.4-5.7c-0.4-3.3-1.3-6.7-5.4-8.1c-8.8-3-17.5-6.5-26.3-9.5
			c-12.9-4.4-26.2-6.6-39.8-6.3c-11.5,0.2-22.3-0.4-32.4-7.6c-10.2-7.3-21.5-13.1-32.2-19.6c-2-1.2-3.4-3.7-5.4-4.4
			c-5.1-1.7-8.5-5.7-8.6-11c-0.2-7-2.4-14-2.2-21c0.1-5.2,1.6-11.1,3-16.2c1.5-5.3,4.9-9.7,7.1-14.8c0.2-0.4,0.1-0.9,0.2-1.4
			c-0.3,0-0.6-0.1-0.8,0.1c-3.7,3.2-7.6,8.9-10.2,12.8c-2.5,3.8-3.3,7.8-4.2,12.3c-1.1,17.6-1.1,17.6,3.8,35.7
			c2.7,6.4,2.8,6.5-3.3,9c-4.7,1.9-9.3,4.4-14.2,5.2c-9.8,1.7-19.8,2.6-29.8,3.4c-7.9,0.6-15.8,0.5-23.7,0.7c-0.3,0-1.1-1.2-0.9-1.4
			c2.2-4.1,2.6-2.2,5.4-5.9c6.1-7.9,9.2-21.9,6.7-32.4c0.6-4.6-1.8-11.7-4.3-15.8c-4.3-7.4-3.9-10.1-14.7-19.4
			c-10.8-9.3-30.6-14.1-44.2-14.8c-13.5-0.7-6-0.1-13.4,0c-23,0.4-43.5,8-60.3,23.8c-7.1,6.6-12.7,14.8-19,22.2
			C33.2,164,33.2,164.5,33.3,165z M366.3,49.3c-0.1-8.7-6.8-15.8-17.4-18.3c-11.1-2.6-24.5,4.7-28.3,15.3
			c-4.8,13.2,5.3,25.9,20.6,25.9C355.3,72.3,366.4,62.1,366.3,49.3z M409.4,42.3c0.8,0.1,1.6,0.2,2.4,0.3c-0.5-0.6-1-1.4-1.6-1.7
			c-2-0.9-4-1.8-6-2.2c-0.9-0.2-2.1,1.1-3.1,1.7c1.1,0.5,2.1,1.2,3.2,1.6c0.4,0.2,1,0,3,0C406.8,42,408.1,42.2,409.4,42.3z"/>
		<path class="st0" d="M340.6,59c7.7,0.1,14.9-4.7,16.7-10.2c0.3-0.9-0.2-2.5-0.9-3.1c-7.2-5.9-20.5-3.2-25,5.1
			c-0.5,0.9-0.1,3.2,0.6,3.7C335.2,56.5,338.7,58,340.6,59z"/>
	</g>
</g>
</svg>
