<svg width="18" height="18" viewBox="0 0 22 22" fill="none" xmlns="http://www.w3.org/2000/svg">
<path d="M19 4H21V2L19 0H2C1.46957 0 0.960859 0.210714 0.585786 0.585786C0.210714 0.960859 0 1.46957 0 2V11C0 11.5304 0.210714 12.0391 0.585786 12.4142C0.960859 12.7893 1.46957 13 2 13H3C3 13.7956 3.31607 14.5587 3.87868 15.1213C4.44129 15.6839 5.20435 16 6 16C6.79565 16 7.55871 15.6839 8.12132 15.1213C8.68393 14.5587 9 13.7956 9 13H14C14 13.7956 14.3161 14.5587 14.8787 15.1213C15.4413 15.6839 16.2044 16 17 16C17.7956 16 18.5587 15.6839 19.1213 15.1213C19.6839 14.5587 20 13.7956 20 13H22V8L19 4ZM6 14.5C5.60218 14.5 5.22064 14.342 4.93934 14.0607C4.65804 13.7794 4.5 13.3978 4.5 13C4.5 12.6022 4.65804 12.2206 4.93934 11.9393C5.22064 11.658 5.60218 11.5 6 11.5C6.39782 11.5 6.77936 11.658 7.06066 11.9393C7.34196 12.2206 7.5 12.6022 7.5 13C7.5 13.3978 7.34196 13.7794 7.06066 14.0607C6.77936 14.342 6.39782 14.5 6 14.5ZM8 8H2V5H8V8ZM13 11H10V5H13V11ZM17 14.5C16.7033 14.5 16.4133 14.412 16.1666 14.2472C15.92 14.0824 15.7277 13.8481 15.6142 13.574C15.5007 13.2999 15.4709 12.9983 15.5288 12.7074C15.5867 12.4164 15.7296 12.1491 15.9393 11.9393C16.1491 11.7296 16.4164 11.5867 16.7074 11.5288C16.9983 11.4709 17.2999 11.5006 17.574 11.6142C17.8481 11.7277 18.0824 11.92 18.2472 12.1666C18.412 12.4133 18.5 12.7033 18.5 13C18.4899 13.3946 18.3286 13.7703 18.0495 14.0495C17.7703 14.3286 17.3946 14.4899 17 14.5ZM16 8V5.5H18.5L20.5 8H16Z" fill="rgba(0,0,0,0.54)"/>
</svg>
