<svg width="190" height="72" viewBox="0 0 190 72" fill="none" xmlns="http://www.w3.org/2000/svg">
<g filter="url(#filter0_d)">
<path d="M17.2504 39.95C17.2504 44.885 17.0154 45.59 14.3364 45.825L12.7854 45.966C12.5034 46.248 12.5974 47 12.8794 47.141C15.6524 47.047 17.2504 47 19.2714 47H23.5014C27.6844 47 31.8674 47.047 36.0974 47.141C36.7084 45.872 37.8834 42.253 38.2124 40.608C38.0244 40.185 37.3664 40.044 37.0374 40.279C35.8154 42.723 34.5464 44.368 33.7004 44.838C32.6664 45.355 31.3034 45.543 27.6844 45.543C23.5484 45.543 22.5614 45.026 21.9974 44.462C21.2454 43.663 21.1044 42.065 21.1044 39.574V32.947C21.1044 31.725 21.2454 31.678 22.6554 31.678H25.3814C27.2144 31.678 28.3424 31.725 29.0004 31.913C29.9404 32.148 30.2694 32.853 30.4574 33.699L30.8804 35.532C31.1154 35.814 31.9144 35.814 32.1024 35.485C32.1024 34.451 31.9144 32.665 31.9144 30.973C31.9144 29.187 32.1024 27.354 32.1024 26.226C31.9144 25.897 31.1154 25.897 30.8804 26.179L30.5044 28.106C30.2694 29.281 29.9404 29.563 29.3764 29.751C28.8124 29.939 27.3554 30.033 25.3814 30.033H22.6554C21.2454 30.033 21.1044 30.033 21.1044 28.717V19.317C21.1044 17.531 21.1044 17.437 22.5144 17.437H25.8984C27.9664 17.437 29.4704 17.484 30.4574 17.719C32.9014 18.33 33.3244 19.975 34.0294 22.184C34.2644 22.466 35.0164 22.372 35.2044 22.09C35.0164 20.022 34.7344 16.638 34.4524 15.839C33.8884 15.98 31.1154 15.98 28.1074 15.98H19.2714C17.3444 15.98 15.7464 15.933 13.7254 15.839C13.4434 15.98 13.3494 16.826 13.6314 17.014L14.3834 17.108C17.1564 17.437 17.2504 18.142 17.2504 23.03V39.95ZM51.2253 37.647C51.6013 38.164 51.5073 38.352 51.0843 38.869C50.0033 40.185 47.8883 43.334 46.9013 44.368C46.0553 45.261 45.3973 45.637 44.5513 45.778L43.4703 45.966C43.1413 46.154 43.1883 46.953 43.5643 47.141C44.7863 47.047 45.8203 47 46.9953 47C48.1233 47 49.2983 47.047 50.4733 47.141C50.8023 47 50.8493 46.201 50.5673 45.966L49.7683 45.825C48.5933 45.637 48.6873 45.261 49.6273 43.757L51.6013 40.655C51.9303 40.138 52.3063 39.668 52.4473 39.527C52.6353 39.668 52.9173 40.044 53.4813 40.89L55.9253 44.415C56.5363 45.261 56.4893 45.684 55.1263 45.825L53.7633 45.966C53.4343 46.201 53.5283 47 53.9043 47.141C55.4083 47.047 56.6303 47 58.3693 47C59.7323 47 61.2833 47.047 63.0223 47.141C63.3513 47 63.3983 46.248 63.1163 45.966L62.3643 45.919C61.0953 45.825 60.3433 45.214 59.2623 43.71L54.8913 37.553C54.2803 36.707 54.2803 36.566 54.8443 35.814C56.7242 33.276 58.4633 31.114 59.2623 30.456C59.7793 30.033 60.4843 29.892 61.6123 29.657L62.3173 29.516C62.5993 29.281 62.5993 28.529 62.2233 28.341C61.3303 28.435 59.8733 28.482 58.7923 28.482C57.6643 28.482 56.4423 28.435 55.3613 28.341C54.9852 28.482 54.8913 29.234 55.1733 29.516L55.7373 29.657C56.7713 29.939 56.9123 30.174 56.1133 31.396C55.1263 32.9 53.5753 35.25 53.3873 35.391C53.2463 35.25 52.9643 34.874 52.7763 34.592L50.5203 31.302C49.7213 30.174 49.6743 29.892 50.9433 29.657L51.6483 29.516C51.9303 29.281 51.9303 28.529 51.6013 28.341C49.7683 28.435 48.7343 28.482 47.6063 28.482C46.4313 28.482 45.3503 28.435 43.5173 28.341C43.1883 28.482 43.1413 29.281 43.4233 29.516L44.1753 29.657C45.4913 29.892 46.2903 30.644 46.9953 31.678L51.2253 37.647ZM71.6884 53.721C71.6884 57.105 71.6414 57.575 69.9024 57.81L68.9154 57.951C68.5864 58.186 68.6804 58.985 69.0094 59.126C70.3254 59.032 71.7354 58.985 73.4274 58.985C75.0724 58.985 76.4354 59.032 78.6914 59.126C79.0204 58.985 79.1144 58.186 78.7854 57.951L76.9524 57.716C75.2604 57.481 75.1664 57.058 75.1664 53.721V48.786C75.1664 47.799 75.4014 47.564 75.8244 47.47C76.2474 47.564 77.5634 47.658 78.4094 47.658C85.0834 47.658 89.8774 42.958 89.8774 36.425C89.8774 31.678 86.8224 27.824 82.0754 27.824C79.0674 27.824 76.1064 29.751 75.4954 30.033C75.1664 30.033 75.0724 29.751 75.0724 29.422C75.0724 28.811 75.1664 28.106 75.2604 27.26C75.1664 27.025 74.9784 26.931 74.6964 26.931C73.4744 27.824 71.2654 28.952 70.0434 29.469C69.8084 29.61 69.8084 30.127 69.9964 30.315L70.4194 30.597C71.6884 31.443 71.6884 31.678 71.6884 33.511V53.721ZM75.1664 34.169C75.1664 32.618 75.3074 31.913 75.7304 31.396C76.2474 30.832 77.7044 30.08 79.7254 30.08C83.9554 30.08 86.0704 33.887 86.0704 37.647C86.0704 42.535 83.8144 46.107 79.9604 46.107C78.9734 46.107 77.5164 45.778 76.5764 45.073C75.6364 44.321 75.1664 43.757 75.1664 42.253V34.169ZM103.629 19.505C103.629 17.437 103.723 15.087 103.77 13.677C103.676 13.489 103.488 13.395 103.3 13.395C101.608 14.288 99.3986 14.993 98.2236 15.369C97.9886 15.51 97.9886 16.168 98.2236 16.309L98.6936 16.591C100.104 17.437 100.151 17.719 100.151 20.492V41.736C100.151 45.12 100.104 45.59 98.3646 45.825L97.2836 45.966C96.9546 46.201 97.0486 47 97.3776 47.141C98.7876 47.047 100.198 47 101.89 47C103.535 47 104.898 47.047 106.449 47.141C106.778 47 106.872 46.201 106.543 45.966L105.415 45.825C103.723 45.59 103.629 45.12 103.629 41.736V19.505ZM123.783 27.824C118.237 27.824 113.772 32.054 113.772 37.976C113.772 43.851 118.002 47.658 123.407 47.658C129.282 47.658 133.324 43.428 133.324 37.553C133.324 31.772 129.047 27.824 123.783 27.824ZM129.282 38.305C129.282 41.924 128.013 46.248 123.877 46.248C119.741 46.248 117.814 41.642 117.814 37.365C117.814 32.195 120.117 29.234 123.219 29.234C127.684 29.234 129.282 34.31 129.282 38.305ZM144.09 41.736C144.09 45.12 144.043 45.543 142.304 45.825L141.411 45.966C141.082 46.201 141.176 47 141.505 47.141C142.727 47.047 144.137 47 145.829 47C147.474 47 148.837 47.047 151.046 47.141C151.375 47 151.469 46.201 151.14 45.966L149.448 45.825C147.662 45.684 147.568 45.12 147.568 41.736V35.344C147.568 33.746 147.709 32.383 148.179 31.725C148.555 31.208 149.119 30.785 149.871 30.785C150.529 30.785 151.234 31.067 151.939 31.537C152.268 31.725 152.503 31.866 152.973 31.866C153.725 31.866 154.994 31.255 154.994 29.704C154.994 28.576 154.054 27.824 152.879 27.824C151.14 27.824 149.354 29.281 147.709 30.644C147.615 30.597 147.568 30.456 147.568 30.221V27.495C147.568 27.307 147.427 27.213 147.192 27.166C146.017 27.871 143.526 29.093 142.445 29.469C142.21 29.61 142.21 30.127 142.398 30.315L142.821 30.597C144.09 31.443 144.09 31.678 144.09 33.511V41.736ZM173.936 34.968C175.91 34.968 176.568 34.921 176.709 34.639C176.803 34.451 176.897 34.075 176.897 33.417C176.897 30.597 174.265 27.824 170.223 27.824C164.583 27.824 160.776 32.665 160.776 38.446C160.776 40.514 161.34 42.723 162.75 44.556C164.113 46.342 166.51 47.658 169.565 47.658C172.009 47.658 175.393 46.483 176.944 43.287C176.897 42.864 176.568 42.582 176.098 42.723C174.641 44.556 173.325 45.026 171.774 45.026C166.745 45.026 163.972 40.984 163.972 36.237C163.972 35.062 164.019 34.968 165.241 34.968H173.936ZM164.818 33.558C164.489 33.558 164.489 33.417 164.489 33.323C164.536 31.772 166.933 29.234 169.706 29.234C172.432 29.234 173.325 30.879 173.325 32.195C173.325 32.806 173.184 32.994 173.043 33.088C172.667 33.37 171.633 33.558 168.155 33.558H164.818Z" fill="#E2E7F3"/>
<path d="M14.3364 45.825L14.2927 45.3269L14.2911 45.3271L14.3364 45.825ZM12.7854 45.966L12.7401 45.4681L12.5598 45.4844L12.4318 45.6124L12.7854 45.966ZM12.8794 47.141L12.6558 47.5882L12.7694 47.645L12.8963 47.6407L12.8794 47.141ZM36.0974 47.141L36.0863 47.6409L36.4082 47.648L36.5479 47.3579L36.0974 47.141ZM38.2124 40.608L38.7027 40.7061L38.7338 40.5502L38.6693 40.4049L38.2124 40.608ZM37.0374 40.279L36.7468 39.8721L36.6457 39.9443L36.5902 40.0554L37.0374 40.279ZM33.7004 44.838L33.924 45.2852L33.9337 45.2804L33.9432 45.2751L33.7004 44.838ZM21.9974 44.462L21.6333 44.8047L21.6385 44.8102L21.6438 44.8156L21.9974 44.462ZM29.0004 31.913L28.863 32.3938L28.871 32.3961L28.8791 32.3981L29.0004 31.913ZM30.4574 33.699L29.9693 33.8075L29.9702 33.8114L30.4574 33.699ZM30.8804 35.532L30.3932 35.6444L30.42 35.7605L30.4963 35.8521L30.8804 35.532ZM32.1024 35.485L32.5365 35.7331L32.6024 35.6178V35.485H32.1024ZM32.1024 26.226H32.6024V26.0932L32.5365 25.9779L32.1024 26.226ZM30.8804 26.179L30.4963 25.8589L30.4142 25.9574L30.3896 26.0832L30.8804 26.179ZM30.5044 28.106L30.9947 28.2041L30.9951 28.2018L30.5044 28.106ZM29.3764 29.751L29.2183 29.2767V29.2767L29.3764 29.751ZM30.4574 17.719L30.5787 17.2339L30.5732 17.2326L30.4574 17.719ZM34.0294 22.184L33.553 22.336L33.5827 22.4291L33.6453 22.5041L34.0294 22.184ZM35.2044 22.09L35.6204 22.3673L35.7183 22.2205L35.7023 22.0447L35.2044 22.09ZM34.4524 15.839L34.9239 15.6726L34.7725 15.2436L34.3311 15.3539L34.4524 15.839ZM13.7254 15.839L13.7486 15.3395L13.6184 15.3335L13.5018 15.3918L13.7254 15.839ZM13.6314 17.014L13.354 17.43L13.4522 17.4955L13.5694 17.5101L13.6314 17.014ZM14.3834 17.108L14.3214 17.6041L14.3245 17.6045L14.3834 17.108ZM16.7504 39.95C16.7504 41.1845 16.7355 42.1347 16.6735 42.8752C16.6111 43.6217 16.5038 44.1064 16.347 44.4342C16.2025 44.7361 16.0112 44.9158 15.7198 45.0446C15.401 45.1854 14.9542 45.2689 14.2927 45.3269L14.3801 46.3231C15.058 46.2636 15.6452 46.1708 16.124 45.9592C16.6302 45.7355 16.9999 45.3864 17.249 44.8658C17.4858 44.3711 17.6047 43.7396 17.6701 42.9586C17.7359 42.1715 17.7504 41.183 17.7504 39.95H16.7504ZM14.2911 45.3271L12.7401 45.4681L12.8306 46.4639L14.3816 46.3229L14.2911 45.3271ZM12.4318 45.6124C12.1333 45.9109 12.0943 46.3578 12.1232 46.6549C12.1394 46.8206 12.1806 46.9934 12.2527 47.1484C12.3202 47.2936 12.4426 47.4816 12.6558 47.5882L13.103 46.6938C13.1751 46.7299 13.18 46.771 13.1594 46.7267C13.1434 46.6923 13.1258 46.633 13.1185 46.5578C13.1113 46.4835 13.1161 46.4145 13.1281 46.3633C13.1411 46.3084 13.1546 46.3039 13.1389 46.3196L12.4318 45.6124ZM12.8963 47.6407C15.6689 47.5467 17.2596 47.5 19.2714 47.5V46.5C17.2412 46.5 15.6358 46.5473 12.8624 46.6413L12.8963 47.6407ZM19.2714 47.5H23.5014V46.5H19.2714V47.5ZM23.5014 47.5C27.6806 47.5 31.8599 47.547 36.0863 47.6409L36.1085 46.6411C31.8748 46.547 27.6881 46.5 23.5014 46.5V47.5ZM36.5479 47.3579C36.8693 46.6903 37.3246 45.44 37.7363 44.1696C38.149 42.896 38.5323 41.5578 38.7027 40.7061L37.7221 40.5099C37.5634 41.3032 37.1947 42.597 36.785 43.8614C36.3742 45.129 35.9364 46.3227 35.6469 46.9241L36.5479 47.3579ZM38.6693 40.4049C38.4951 40.013 38.1297 39.7965 37.8019 39.7124C37.4802 39.6299 37.068 39.6427 36.7468 39.8721L37.328 40.6859C37.3279 40.6859 37.3462 40.6738 37.3925 40.6683C37.4377 40.6629 37.4944 40.6659 37.5536 40.6811C37.684 40.7145 37.7417 40.78 37.7555 40.8111L38.6693 40.4049ZM36.5902 40.0554C35.9892 41.2572 35.3812 42.2534 34.8264 43.0007C34.2608 43.7626 33.784 44.2196 33.4576 44.4009L33.9432 45.2751C34.4627 44.9864 35.0435 44.3859 35.6293 43.5968C36.226 42.7931 36.8635 41.7448 37.4846 40.5026L36.5902 40.0554ZM33.4768 44.3908C32.5642 44.8471 31.3199 45.043 27.6844 45.043V46.043C31.2869 46.043 32.7685 45.8629 33.924 45.2852L33.4768 44.3908ZM27.6844 45.043C23.5461 45.043 22.7563 44.5138 22.3509 44.1084L21.6438 44.8156C22.3664 45.5382 23.5507 46.043 27.6844 46.043V45.043ZM22.3615 44.1193C22.0875 43.8282 21.8861 43.348 21.7626 42.5738C21.6401 41.8053 21.6044 40.8173 21.6044 39.574H20.6044C20.6044 40.8217 20.6391 41.8782 20.7751 42.7312C20.9102 43.5785 21.1552 44.2968 21.6333 44.8047L22.3615 44.1193ZM21.6044 39.574V32.947H20.6044V39.574H21.6044ZM21.6044 32.947C21.6044 32.6395 21.6143 32.4532 21.6387 32.3312C21.6606 32.222 21.6811 32.231 21.6581 32.2489C21.653 32.2529 21.6897 32.2218 21.8734 32.2014C22.0524 32.1815 22.297 32.178 22.6554 32.178V31.178C22.3087 31.178 22.007 31.1804 21.763 31.2075C21.5237 31.2341 21.2608 31.2911 21.0442 31.4596C20.8096 31.642 20.7068 31.8918 20.6581 32.1351C20.612 32.3657 20.6044 32.6435 20.6044 32.947H21.6044ZM22.6554 32.178H25.3814V31.178H22.6554V32.178ZM25.3814 32.178C27.2369 32.178 28.2866 32.2291 28.863 32.3938L29.1377 31.4322C28.3982 31.2209 27.1919 31.178 25.3814 31.178V32.178ZM28.8791 32.3981C29.2353 32.4871 29.4511 32.6542 29.6045 32.8682C29.7693 33.098 29.8805 33.408 29.9693 33.8075L30.9455 33.5905C30.8462 33.144 30.6989 32.6785 30.4172 32.2855C30.1242 31.8768 29.7054 31.5739 29.1216 31.4279L28.8791 32.3981ZM29.9702 33.8114L30.3932 35.6444L31.3676 35.4196L30.9446 33.5866L29.9702 33.8114ZM30.4963 35.8521C30.6394 36.0238 30.8335 36.1169 30.9954 36.1673C31.1646 36.22 31.3472 36.2415 31.5206 36.2375C31.6932 36.2335 31.8789 36.2036 32.0503 36.1353C32.2171 36.0688 32.4139 35.9475 32.5365 35.7331L31.6683 35.2369C31.6968 35.187 31.7233 35.1891 31.68 35.2063C31.6414 35.2217 31.5775 35.2359 31.4974 35.2378C31.4182 35.2396 31.3452 35.2289 31.2926 35.2125C31.2328 35.1939 31.2389 35.1811 31.2645 35.2119L30.4963 35.8521ZM32.6024 35.485C32.6024 34.9488 32.5539 34.223 32.5075 33.446C32.4605 32.6591 32.4144 31.8027 32.4144 30.973H31.4144C31.4144 31.8353 31.4622 32.7179 31.5093 33.5055C31.5569 34.303 31.6024 34.9872 31.6024 35.485H32.6024ZM32.4144 30.973C32.4144 30.0956 32.4606 29.2034 32.5076 28.3813C32.554 27.5679 32.6024 26.8083 32.6024 26.226H31.6024C31.6024 26.7717 31.5567 27.4926 31.5092 28.3242C31.4622 29.1471 31.4144 30.0644 31.4144 30.973H32.4144ZM32.5365 25.9779C32.4139 25.7635 32.2171 25.6422 32.0503 25.5757C31.8789 25.5074 31.6932 25.4775 31.5206 25.4735C31.3472 25.4695 31.1646 25.491 30.9954 25.5437C30.8335 25.5941 30.6394 25.6871 30.4963 25.8589L31.2645 26.4991C31.2389 26.5298 31.2328 26.5171 31.2926 26.4985C31.3452 26.4821 31.4182 26.4714 31.4974 26.4732C31.5775 26.4751 31.6414 26.4893 31.68 26.5047C31.7233 26.5219 31.6968 26.524 31.6683 26.4741L32.5365 25.9779ZM30.3896 26.0832L30.0136 28.0102L30.9951 28.2018L31.3711 26.2748L30.3896 26.0832ZM30.0141 28.0079C29.9014 28.5712 29.7787 28.8466 29.6649 28.9971C29.5677 29.1257 29.4507 29.1992 29.2183 29.2767L29.5345 30.2253C29.8661 30.1148 30.1956 29.9533 30.4626 29.6002C30.7131 29.2689 30.8723 28.8158 30.9947 28.2041L30.0141 28.0079ZM29.2183 29.2767C29.0032 29.3484 28.5559 29.4166 27.8732 29.4637C27.2072 29.5096 26.3618 29.533 25.3814 29.533V30.533C26.375 30.533 27.2451 30.5094 27.942 30.4613C28.6223 30.4144 29.1856 30.3416 29.5345 30.2253L29.2183 29.2767ZM25.3814 29.533H22.6554V30.533H25.3814V29.533ZM22.6554 29.533C22.2929 29.533 22.0482 29.5324 21.8666 29.5148C21.6798 29.4966 21.6485 29.4663 21.6581 29.4738C21.6858 29.4954 21.6629 29.5067 21.6396 29.3843C21.6143 29.2514 21.6044 29.0487 21.6044 28.717H20.6044C20.6044 29.0433 20.6121 29.3341 20.6573 29.5714C20.7044 29.8191 20.8049 30.0771 21.0442 30.2632C21.2653 30.4352 21.5336 30.4871 21.7698 30.5101C22.0111 30.5336 22.3129 30.533 22.6554 30.533V29.533ZM21.6044 28.717V19.317H20.6044V28.717H21.6044ZM21.6044 19.317C21.6044 18.8615 21.6048 18.5459 21.6246 18.312C21.6453 18.0684 21.6821 18.0054 21.6875 17.9979C21.6876 17.9978 21.6872 17.9983 21.6863 17.9993C21.6855 18.0002 21.6845 18.0012 21.6835 18.002C21.6812 18.004 21.681 18.0037 21.6848 18.0016C21.6941 17.9966 21.7233 17.9836 21.7903 17.9712C21.9356 17.9443 22.1532 17.937 22.5144 17.937V16.937C22.1705 16.937 21.8594 16.9414 21.6082 16.988C21.3403 17.0376 21.0655 17.1482 20.8738 17.4166C20.7029 17.6558 20.6516 17.9512 20.6282 18.2276C20.6039 18.5136 20.6044 18.8795 20.6044 19.317H21.6044ZM22.5144 17.937H25.8984V16.937H22.5144V17.937ZM25.8984 17.937C27.9806 17.937 29.4225 17.9866 30.3416 18.2054L30.5732 17.2326C29.5183 16.9814 27.9521 16.937 25.8984 16.937V17.937ZM30.3361 18.2041C31.443 18.4808 32.0504 18.9734 32.477 19.6259C32.93 20.3186 33.1908 21.201 33.553 22.336L34.5057 22.032C34.1629 20.958 33.8598 19.9134 33.314 19.0786C32.7418 18.2036 31.9158 17.5682 30.5786 17.2339L30.3361 18.2041ZM33.6453 22.5041C33.7955 22.6844 33.9978 22.7716 34.1652 22.8132C34.3375 22.856 34.518 22.8622 34.6831 22.8461C34.8487 22.83 35.02 22.7892 35.1751 22.7213C35.3224 22.6568 35.5001 22.5478 35.6204 22.3673L34.7884 21.8126C34.8147 21.7732 34.8278 21.7817 34.7739 21.8053C34.7278 21.8255 34.6612 21.8435 34.586 21.8509C34.5102 21.8583 34.4468 21.8528 34.4062 21.8427C34.3606 21.8314 34.3808 21.8246 34.4135 21.8639L33.6453 22.5041ZM35.7023 22.0447C35.6087 21.0144 35.4906 19.645 35.3608 18.4353C35.2958 17.8303 35.2274 17.26 35.1569 16.7881C35.0885 16.3304 35.0125 15.9237 34.9239 15.6726L33.9809 16.0054C34.0332 16.1538 34.0982 16.4698 34.1679 16.9359C34.2354 17.3878 34.3022 17.9426 34.3665 18.542C34.4952 19.741 34.6121 21.0976 34.7064 22.1353L35.7023 22.0447ZM34.3311 15.3539C34.2453 15.3754 34.0154 15.4009 33.6204 15.4212C33.243 15.4405 32.7564 15.4537 32.1886 15.4624C31.0536 15.48 29.6127 15.48 28.1074 15.48V16.48C29.61 16.48 31.0596 16.48 32.2041 16.4623C32.7761 16.4535 33.2765 16.4401 33.6717 16.4199C34.0492 16.4005 34.3775 16.3731 34.5736 16.3241L34.3311 15.3539ZM28.1074 15.48H19.2714V16.48H28.1074V15.48ZM19.2714 15.48C17.354 15.48 15.764 15.4333 13.7486 15.3395L13.7021 16.3385C15.7287 16.4327 17.3347 16.48 19.2714 16.48V15.48ZM13.5018 15.3918C13.2748 15.5053 13.1545 15.7149 13.093 15.8575C13.0243 16.0166 12.9847 16.1944 12.969 16.3626C12.9534 16.5302 12.9591 16.7157 13.0018 16.8899C13.0413 17.051 13.1327 17.2825 13.354 17.43L13.9087 16.598C13.9514 16.6264 13.9708 16.6564 13.9761 16.6656C13.9812 16.6744 13.978 16.6719 13.9731 16.652C13.9629 16.6103 13.9568 16.5402 13.9647 16.4552C13.9726 16.3707 13.9917 16.2988 14.0111 16.2538C14.0206 16.2319 14.0259 16.2261 14.0223 16.2308C14.0192 16.2347 13.9972 16.2621 13.949 16.2862L13.5018 15.3918ZM13.5694 17.5101L14.3214 17.6041L14.4454 16.6119L13.6934 16.5179L13.5694 17.5101ZM14.3245 17.6045C15.0104 17.6859 15.4668 17.785 15.7873 17.9367C16.0798 18.0751 16.2646 18.2598 16.4002 18.5633C16.5482 18.8944 16.6424 19.3786 16.6935 20.1231C16.7443 20.8615 16.7504 21.8043 16.7504 23.03H17.7504C17.7504 21.8117 17.7447 20.8334 17.6912 20.0545C17.6381 19.2818 17.5355 18.6527 17.3133 18.1554C17.0788 17.6306 16.7201 17.2718 16.2151 17.0328C15.738 16.807 15.1429 16.6946 14.4423 16.6115L14.3245 17.6045ZM16.7504 23.03V39.95H17.7504V23.03H16.7504ZM51.2253 37.647L50.8173 37.9361L50.8209 37.9411L51.2253 37.647ZM51.0843 38.869L51.4706 39.1864L51.4712 39.1856L51.0843 38.869ZM46.9012 44.368L46.5396 44.0228L46.5383 44.0241L46.9012 44.368ZM44.5513 45.778L44.469 45.2848L44.4656 45.2854L44.5513 45.778ZM43.4702 45.966L43.3846 45.4734L43.2983 45.4884L43.2222 45.5319L43.4702 45.966ZM43.5643 47.141L43.3406 47.5882L43.4645 47.6501L43.6026 47.6395L43.5643 47.141ZM50.4733 47.141L50.4334 47.6394L50.5566 47.6493L50.6702 47.6006L50.4733 47.141ZM50.5672 45.966L50.8873 45.5819L50.7851 45.4967L50.6541 45.4736L50.5672 45.966ZM49.7682 45.825L49.8552 45.3325L49.8472 45.3313L49.7682 45.825ZM49.6273 43.757L49.2054 43.4886L49.2033 43.492L49.6273 43.757ZM51.6012 40.655L52.0231 40.9234L51.6012 40.655ZM52.4473 39.527L52.7472 39.127L52.4003 38.8668L52.0937 39.1734L52.4473 39.527ZM53.4813 40.89L53.0652 41.1674L53.0704 41.1749L53.4813 40.89ZM55.9253 44.415L55.5143 44.6999L55.5199 44.7077L55.9253 44.415ZM55.1263 45.825L55.1777 46.3223L55.1263 45.825ZM53.7632 45.966L53.7118 45.4687L53.5802 45.4823L53.4726 45.5591L53.7632 45.966ZM53.9043 47.141L53.7287 47.6092L53.8288 47.6467L53.9354 47.64L53.9043 47.141ZM63.0223 47.141L62.9953 47.6403L63.1119 47.6466L63.2192 47.6006L63.0223 47.141ZM63.1162 45.966L63.4698 45.6124L63.3361 45.4788L63.1474 45.467L63.1162 45.966ZM62.3643 45.919L62.3273 46.4177L62.3331 46.418L62.3643 45.919ZM59.2623 43.71L58.8545 43.9994L58.8562 44.0018L59.2623 43.71ZM54.8913 37.553L55.299 37.2635L55.2966 37.2603L54.8913 37.553ZM54.8442 35.814L55.2443 36.114L55.246 36.1116L54.8442 35.814ZM59.2623 30.456L58.9456 30.069L58.9444 30.07L59.2623 30.456ZM61.6123 29.657L61.5142 29.1667L61.5103 29.1675L61.6123 29.657ZM62.3172 29.516L62.4153 30.0063L62.5398 29.9814L62.6373 29.9001L62.3172 29.516ZM62.2233 28.341L62.4469 27.8938L62.3162 27.8285L62.1709 27.8437L62.2233 28.341ZM55.3613 28.341L55.4046 27.8429L55.2917 27.8331L55.1857 27.8728L55.3613 28.341ZM55.1733 29.516L54.8197 29.8696L54.9176 29.9675L55.052 30.0011L55.1733 29.516ZM55.7373 29.657L55.8688 29.1745L55.8585 29.1719L55.7373 29.657ZM56.1133 31.396L56.5313 31.6703L56.5317 31.6696L56.1133 31.396ZM53.3872 35.391L53.0337 35.7446L53.3403 36.0512L53.6872 35.791L53.3872 35.391ZM52.7762 34.592L53.1923 34.3146L53.1886 34.3092L52.7762 34.592ZM50.5202 31.302L50.9327 31.0192L50.9283 31.013L50.5202 31.302ZM50.9432 29.657L51.0343 30.1487L51.0413 30.1473L50.9432 29.657ZM51.6483 29.516L51.7463 30.0063L51.8708 29.9814L51.9683 29.9001L51.6483 29.516ZM51.6012 28.341L51.8493 27.9069L51.722 27.8341L51.5756 27.8417L51.6012 28.341ZM43.5173 28.341L43.5429 27.8417L43.427 27.8357L43.3203 27.8814L43.5173 28.341ZM43.4232 29.516L43.1032 29.9001L43.2032 29.9834L43.3311 30.0074L43.4232 29.516ZM44.1753 29.657L44.0831 30.1485L44.0874 30.1492L44.1753 29.657ZM46.9953 31.678L46.5821 31.9597L46.5873 31.9671L46.9953 31.678ZM50.8209 37.9411C50.9947 38.1801 50.9553 38.2108 50.9612 38.1758C50.9617 38.1727 50.9588 38.1964 50.9154 38.2648C50.8708 38.3352 50.803 38.4232 50.6973 38.5524L51.4712 39.1856C51.577 39.0563 51.6796 38.927 51.7598 38.8005C51.8413 38.6721 51.9177 38.5195 51.9476 38.3402C52.0122 37.9527 51.8318 37.6309 51.6296 37.3529L50.8209 37.9411ZM50.6979 38.5516C50.1453 39.2244 49.3332 40.359 48.5533 41.4299C47.7579 42.5221 47.0047 43.5355 46.5396 44.0228L47.2629 44.7132C47.7848 44.1665 48.5826 43.0884 49.3617 42.0186C50.1563 40.9275 50.9422 39.8296 51.4706 39.1864L50.6979 38.5516ZM46.5383 44.0241C45.7428 44.8638 45.1774 45.1667 44.4691 45.2848L44.6334 46.2712C45.6171 46.1073 46.3677 45.6582 47.2642 44.7119L46.5383 44.0241ZM44.4656 45.2854L43.3846 45.4734L43.5559 46.4586L44.6369 46.2706L44.4656 45.2854ZM43.2222 45.5319C43.0008 45.6584 42.8812 45.8637 42.8206 46.0394C42.7588 46.2185 42.7414 46.4111 42.7541 46.5891C42.7768 46.9056 42.9182 47.377 43.3406 47.5882L43.7879 46.6938C43.8178 46.7088 43.8113 46.7197 43.7919 46.6809C43.7733 46.6438 43.7565 46.586 43.7516 46.5179C43.7467 46.4491 43.7558 46.395 43.7659 46.3656C43.7773 46.3326 43.7752 46.3676 43.7183 46.4001L43.2222 45.5319ZM43.6026 47.6395C44.8144 47.5463 45.8354 47.5 46.9953 47.5V46.5C45.8051 46.5 44.7581 46.5477 43.5259 46.6425L43.6026 47.6395ZM46.9953 47.5C48.1096 47.5 49.2713 47.5464 50.4334 47.6394L50.5131 46.6426C49.3252 46.5476 48.1369 46.5 46.9953 46.5V47.5ZM50.6702 47.6006C50.9065 47.4993 51.0437 47.3037 51.1189 47.1437C51.1968 46.9779 51.2359 46.7948 51.2481 46.6244C51.2603 46.4529 51.2472 46.2692 51.2001 46.0971C51.155 45.9322 51.0654 45.7303 50.8873 45.5819L50.2472 46.3501C50.2101 46.3192 50.2203 46.3053 50.2355 46.3607C50.2487 46.4089 50.256 46.4778 50.2506 46.5531C50.2452 46.6295 50.2285 46.6872 50.2139 46.7182C50.1966 46.7551 50.2045 46.7122 50.2763 46.6814L50.6702 47.6006ZM50.6541 45.4736L49.8551 45.3326L49.6814 46.3174L50.4804 46.4584L50.6541 45.4736ZM49.8472 45.3313C49.5624 45.2857 49.43 45.238 49.3759 45.2055C49.357 45.1942 49.3699 45.1975 49.3857 45.2233C49.403 45.2516 49.4045 45.2749 49.4045 45.2749C49.404 45.249 49.4193 45.1467 49.5363 44.9086C49.6465 44.6841 49.8164 44.3977 50.0513 44.022L49.2033 43.492C48.9681 43.8683 48.7737 44.1929 48.6387 44.4678C48.5104 44.729 48.3993 45.0145 48.4047 45.2941C48.4077 45.4468 48.4451 45.6024 48.5332 45.7459C48.6197 45.8871 48.7379 45.9888 48.8608 46.0626C49.0902 46.2005 49.3866 46.2703 49.6893 46.3187L49.8472 45.3313ZM50.0491 44.0254L52.0231 40.9234L51.1794 40.3866L49.2054 43.4886L50.0491 44.0254ZM52.0231 40.9234C52.3417 40.4227 52.6954 39.9859 52.8008 39.8806L52.0937 39.1734C51.9171 39.3501 51.5188 39.8533 51.1794 40.3866L52.0231 40.9234ZM52.1473 39.927C52.1808 39.9522 52.2626 40.0319 52.4245 40.2458C52.5795 40.4506 52.7841 40.7457 53.0652 41.1673L53.8973 40.6126C53.6144 40.1883 53.396 39.8724 53.222 39.6424C53.0549 39.4216 52.9017 39.2428 52.7472 39.127L52.1473 39.927ZM53.0704 41.1749L55.5144 44.6999L56.3362 44.1301L53.8922 40.6051L53.0704 41.1749ZM55.5199 44.7077C55.6643 44.9077 55.7449 45.0498 55.7816 45.1477C55.8179 45.2448 55.7864 45.2302 55.812 45.1748C55.8359 45.1231 55.8581 45.1486 55.7305 45.1983C55.605 45.2472 55.3978 45.2942 55.0748 45.3277L55.1777 46.3223C55.5362 46.2853 55.846 46.2266 56.0936 46.13C56.339 46.0344 56.5904 45.8748 56.72 45.5939C56.8513 45.3094 56.8022 45.0216 56.7181 44.7971C56.6343 44.5733 56.4917 44.3453 56.3306 44.1223L55.5199 44.7077ZM55.0748 45.3277L53.7118 45.4687L53.8147 46.4633L55.1777 46.3223L55.0748 45.3277ZM53.4726 45.5591C53.2711 45.7031 53.1649 45.9099 53.113 46.0911C53.0603 46.2749 53.0516 46.4693 53.0729 46.6479C53.0941 46.8262 53.1482 47.0136 53.2438 47.1801C53.3383 47.3445 53.4934 47.5209 53.7287 47.6092L54.0798 46.6728C54.1271 46.6906 54.1295 46.7142 54.1109 46.6819C54.0934 46.6515 54.074 46.598 54.0659 46.5296C54.0578 46.4614 54.0638 46.4032 54.0742 46.3667C54.0854 46.3276 54.0909 46.3464 54.0539 46.3729L53.4726 45.5591ZM53.9354 47.64C55.4303 47.5466 56.6418 47.5 58.3693 47.5V46.5C56.6187 46.5 55.3862 46.5474 53.8731 46.642L53.9354 47.64ZM58.3693 47.5C59.7212 47.5 61.2629 47.5466 62.9953 47.6403L63.0492 46.6417C61.3036 46.5474 59.7433 46.5 58.3693 46.5V47.5ZM63.2192 47.6006C63.4479 47.5026 63.5862 47.3177 63.6647 47.157C63.7447 46.9931 63.7847 46.8122 63.797 46.6429C63.8197 46.3331 63.7574 45.9 63.4698 45.6124L62.7627 46.3196C62.7527 46.3095 62.7686 46.3212 62.7838 46.3782C62.7981 46.4315 62.8048 46.4998 62.7997 46.5699C62.7945 46.6415 62.7786 46.6926 62.7661 46.7182C62.7521 46.7469 62.7611 46.7089 62.8253 46.6814L63.2192 47.6006ZM63.1474 45.467L62.3954 45.42L62.3331 46.418L63.0851 46.465L63.1474 45.467ZM62.4012 45.4204C61.8508 45.3796 61.4372 45.2318 61.038 44.9397C60.6218 44.6352 60.2008 44.1591 59.6683 43.4182L58.8562 44.0018C59.4047 44.7649 59.9002 45.3463 60.4475 45.7468C61.0118 46.1597 61.6087 46.3644 62.3273 46.4176L62.4012 45.4204ZM59.67 43.4206L55.299 37.2636L54.4835 37.8424L58.8545 43.9994L59.67 43.4206ZM55.2966 37.2603C55.1436 37.0484 55.0471 36.9052 54.9876 36.794C54.93 36.6865 54.9272 36.6451 54.927 36.6358C54.9269 36.6311 54.925 36.6025 54.9699 36.5174C55.0192 36.4241 55.1028 36.3026 55.2443 36.114L54.4443 35.514C54.3037 35.7014 54.1758 35.8795 54.0855 36.0506C53.9909 36.2299 53.9215 36.4304 53.9273 36.6607C53.9329 36.8864 54.0095 37.0859 54.1061 37.2662C54.2007 37.4429 54.3334 37.6346 54.4859 37.8457L55.2966 37.2603ZM55.246 36.1116C56.1831 34.8465 57.0827 33.6784 57.8455 32.7467C58.6183 31.8029 59.2239 31.1353 59.5801 30.842L58.9444 30.07C58.5016 30.4347 57.8382 31.1771 57.0718 32.1132C56.2953 33.0616 55.3854 34.2435 54.4425 35.5164L55.246 36.1116ZM59.5789 30.843C59.7693 30.6872 60.0082 30.5707 60.3552 30.4639C60.7096 30.3548 61.141 30.2659 61.7142 30.1465L61.5103 29.1675C60.9555 29.2831 60.4704 29.3822 60.0611 29.5081C59.6443 29.6363 59.2722 29.8018 58.9456 30.069L59.5789 30.843ZM61.7103 30.1473L62.4153 30.0063L62.2192 29.0257L61.5142 29.1667L61.7103 30.1473ZM62.6373 29.9001C62.8046 29.7607 62.8992 29.5742 62.951 29.4109C63.0044 29.2426 63.0249 29.0607 63.0164 28.8865C63.0012 28.5754 62.8755 28.1081 62.4469 27.8938L61.9996 28.7882C61.9705 28.7737 61.9722 28.7596 61.9858 28.7879C61.9997 28.8169 62.0143 28.8679 62.0176 28.9352C62.0208 29.0019 62.012 29.0639 61.9978 29.1085C61.982 29.1582 61.9709 29.1538 61.9972 29.1319L62.6373 29.9001ZM62.1709 27.8437C61.3033 27.9351 59.8664 27.982 58.7923 27.982V28.982C59.8801 28.982 61.3572 28.9349 62.2756 28.8383L62.1709 27.8437ZM58.7923 27.982C57.6766 27.982 56.4692 27.9355 55.4046 27.8429L55.3179 28.8391C56.4153 28.9345 57.6519 28.982 58.7923 28.982V27.982ZM55.1857 27.8728C54.7409 28.0396 54.5706 28.4969 54.5258 28.8032C54.4797 29.1182 54.519 29.5689 54.8197 29.8696L55.5268 29.1624C55.5428 29.1784 55.53 29.175 55.5189 29.1248C55.5084 29.0778 55.5055 29.0147 55.5152 28.948C55.5251 28.8806 55.5448 28.8306 55.5615 28.8031C55.5784 28.7751 55.5763 28.7943 55.5368 28.8092L55.1857 27.8728ZM55.052 30.0011L55.616 30.1421L55.8585 29.1719L55.2945 29.0309L55.052 30.0011ZM55.6057 30.1394C55.861 30.209 56.0132 30.2639 56.1027 30.3134C56.1834 30.358 56.1444 30.3596 56.1289 30.3007C56.1197 30.2654 56.1437 30.293 56.0757 30.4554C56.011 30.61 55.8907 30.8228 55.6948 31.1224L56.5317 31.6696C56.7353 31.3582 56.897 31.0834 56.9982 30.8414C57.0963 30.6072 57.1702 30.3294 57.0963 30.0473C57.0163 29.7417 56.7981 29.5552 56.5865 29.4382C56.3837 29.3262 56.1305 29.246 55.8688 29.1746L55.6057 30.1394ZM55.6952 31.1217C55.2018 31.8736 54.5688 32.8348 54.036 33.6252C53.7694 34.0207 53.5298 34.3707 53.3461 34.6293C53.2539 34.759 53.1785 34.862 53.1222 34.9349C53.0938 34.9716 53.0734 34.9967 53.06 35.0121C53.0383 35.0372 53.0518 35.0176 53.0872 34.991L53.6872 35.791C53.7462 35.7468 53.7939 35.6923 53.816 35.6667C53.8465 35.6315 53.8796 35.5902 53.9136 35.5462C53.9819 35.4577 54.0662 35.3422 54.1613 35.2083C54.3522 34.9397 54.5972 34.5817 54.8652 34.1841C55.4017 33.3882 56.0377 32.4224 56.5313 31.6703L55.6952 31.1217ZM53.7408 35.0374C53.6373 34.9339 53.3782 34.5936 53.1923 34.3146L52.3602 34.8694C52.5503 35.1544 52.8552 35.5661 53.0337 35.7446L53.7408 35.0374ZM53.1886 34.3092L50.9326 31.0192L50.1079 31.5848L52.3639 34.8748L53.1886 34.3092ZM50.9283 31.013C50.7283 30.7307 50.5945 30.5274 50.5156 30.3737C50.4286 30.2044 50.4575 30.1864 50.447 30.2404C50.4276 30.3399 50.3541 30.3491 50.4448 30.3058C50.5433 30.2588 50.723 30.2063 51.0343 30.1486L50.8522 29.1654C50.529 29.2252 50.2388 29.2961 50.0141 29.4033C49.7817 29.5142 49.5319 29.7085 49.4655 30.0489C49.408 30.3437 49.5191 30.6224 49.626 30.8306C49.741 31.0543 49.9127 31.3093 50.1122 31.591L50.9283 31.013ZM51.0413 30.1473L51.7463 30.0063L51.5502 29.0257L50.8452 29.1667L51.0413 30.1473ZM51.9683 29.9001C52.1354 29.7609 52.2296 29.5748 52.2818 29.4139C52.3356 29.2477 52.3579 29.0688 52.3537 28.8987C52.3496 28.7293 52.3188 28.5473 52.2487 28.3788C52.1797 28.2129 52.0572 28.0257 51.8493 27.9069L51.3532 28.7751C51.3098 28.7503 51.3107 28.7276 51.3254 28.7629C51.339 28.7957 51.3523 28.8516 51.354 28.9231C51.3557 28.9938 51.3457 29.0588 51.3305 29.1055C51.3136 29.1576 51.3021 29.1536 51.3282 29.1319L51.9683 29.9001ZM51.5756 27.8417C49.7416 27.9357 48.7197 27.982 47.6063 27.982V28.982C48.7488 28.982 49.7949 28.9343 51.6269 28.8403L51.5756 27.8417ZM47.6063 27.982C46.4454 27.982 45.376 27.9357 43.5429 27.8417L43.4916 28.8403C45.3245 28.9343 46.4171 28.982 47.6063 28.982V27.982ZM43.3203 27.8814C43.084 27.9827 42.9468 28.1783 42.8716 28.3383C42.7937 28.5041 42.7546 28.6872 42.7424 28.8576C42.7302 29.0291 42.7434 29.2128 42.7904 29.3849C42.8355 29.5498 42.9251 29.7517 43.1032 29.9001L43.7433 29.1319C43.7804 29.1628 43.7702 29.1767 43.755 29.1213C43.7418 29.0731 43.7345 29.0042 43.7399 28.9289C43.7453 28.8525 43.762 28.7948 43.7766 28.7638C43.7939 28.7269 43.786 28.7698 43.7142 28.8006L43.3203 27.8814ZM43.3311 30.0074L44.0831 30.1484L44.2674 29.1656L43.5154 29.0246L43.3311 30.0074ZM44.0874 30.1492C45.22 30.3515 45.9175 30.9849 46.5821 31.9597L47.4084 31.3963C46.663 30.3031 45.7625 29.4325 44.2631 29.1648L44.0874 30.1492ZM46.5873 31.9671L50.8173 37.9361L51.6332 37.3579L47.4032 31.3889L46.5873 31.9671ZM69.9024 57.81L69.8354 57.3145L69.8316 57.315L69.9024 57.81ZM68.9154 57.951L68.8447 57.456L68.724 57.4733L68.6247 57.5441L68.9154 57.951ZM69.0094 59.126L68.8124 59.5856L68.9239 59.6334L69.045 59.6247L69.0094 59.126ZM78.6914 59.126L78.6705 59.6256L78.784 59.6303L78.8883 59.5856L78.6914 59.126ZM78.7854 57.951L79.076 57.5441L78.9737 57.4711L78.8489 57.4551L78.7854 57.951ZM76.9524 57.716L76.8836 58.2113L76.8888 58.2119L76.9524 57.716ZM75.8244 47.47L75.9328 46.9819L75.8244 46.9578L75.7159 46.9819L75.8244 47.47ZM75.4954 30.033V30.533H75.6052L75.7049 30.487L75.4954 30.033ZM75.2604 27.26L75.7573 27.3152L75.7711 27.1907L75.7246 27.0743L75.2604 27.26ZM74.6964 26.931V26.431H74.5331L74.4014 26.5273L74.6964 26.931ZM70.0434 29.469L69.8485 29.0085L69.8162 29.0222L69.7861 29.0403L70.0434 29.469ZM69.9964 30.315L69.6428 30.6686L69.6778 30.7036L69.719 30.731L69.9964 30.315ZM70.4194 30.597L70.142 31.013V31.013L70.4194 30.597ZM75.7304 31.396L75.3618 31.0581L75.3523 31.0685L75.3434 31.0794L75.7304 31.396ZM76.5764 45.073L76.264 45.4634L76.2701 45.4683L76.2764 45.473L76.5764 45.073ZM71.1884 53.721C71.1884 54.5707 71.1852 55.2187 71.1548 55.7244C71.1239 56.2364 71.0668 56.5529 70.9836 56.7599C70.9111 56.94 70.8216 57.0326 70.6836 57.1046C70.5169 57.1917 70.2622 57.2568 69.8354 57.3145L69.9693 58.3055C70.412 58.2457 70.8153 58.164 71.1465 57.9911C71.5064 57.8031 71.7547 57.5226 71.9114 57.1329C72.0573 56.77 72.1207 56.3198 72.1529 55.7846C72.1856 55.2431 72.1884 54.5633 72.1884 53.721H71.1884ZM69.8316 57.315L68.8447 57.456L68.9861 58.446L69.9731 58.305L69.8316 57.315ZM68.6247 57.5441C68.4233 57.688 68.3177 57.8943 68.2652 58.0732C68.2119 58.2548 68.2012 58.4463 68.2179 58.6212C68.2345 58.7958 68.2808 58.9788 68.3637 59.1422C68.4433 59.2991 68.5829 59.4872 68.8124 59.5856L69.2063 58.6664C69.2713 58.6943 69.2758 58.7297 69.2555 58.6897C69.2385 58.6563 69.2202 58.5985 69.2134 58.5263C69.2065 58.4544 69.2134 58.3933 69.2248 58.3546C69.2369 58.3132 69.2429 58.3315 69.206 58.3579L68.6247 57.5441ZM69.045 59.6247C70.347 59.5317 71.7449 59.485 73.4274 59.485V58.485C71.7259 58.485 70.3037 58.5323 68.9737 58.6273L69.045 59.6247ZM73.4274 59.485C75.0613 59.485 76.4156 59.5316 78.6705 59.6256L78.7122 58.6264C76.4552 58.5324 75.0834 58.485 73.4274 58.485V59.485ZM78.8883 59.5856C79.1178 59.4872 79.2574 59.2991 79.337 59.1422C79.4199 58.9788 79.4662 58.7958 79.4829 58.6212C79.4995 58.4463 79.4888 58.2548 79.4355 58.0732C79.383 57.8943 79.2774 57.688 79.076 57.5441L78.4947 58.3579C78.4578 58.3315 78.4638 58.3132 78.476 58.3546C78.4873 58.3933 78.4942 58.4544 78.4874 58.5263C78.4805 58.5985 78.4622 58.6563 78.4452 58.6897C78.4249 58.7297 78.4294 58.6943 78.4944 58.6664L78.8883 59.5856ZM78.8489 57.4551L77.0159 57.2201L76.8888 58.2119L78.7218 58.4469L78.8489 57.4551ZM77.0211 57.2208C76.6042 57.1628 76.3525 57.1004 76.1852 57.0158C76.0462 56.9454 75.9574 56.8563 75.8849 56.686C75.8012 56.4892 75.7406 56.1847 75.7063 55.6857C75.6724 55.1929 75.6664 54.5576 75.6664 53.721H74.6664C74.6664 54.5529 74.6721 55.2219 74.7087 55.7543C74.7448 56.2804 74.8135 56.722 74.9648 57.0775C75.1273 57.4595 75.3793 57.7287 75.7338 57.9081C76.0599 58.0731 76.4545 58.1517 76.8836 58.2112L77.0211 57.2208ZM75.6664 53.721V48.786H74.6664V53.721H75.6664ZM75.6664 48.786C75.6664 48.3108 75.7271 48.1173 75.77 48.0426C75.786 48.0148 75.7985 47.9879 75.9328 47.9581L75.7159 46.9819C75.4272 47.0461 75.1107 47.1837 74.9034 47.5436C74.7232 47.8567 74.6664 48.2742 74.6664 48.786H75.6664ZM75.7159 47.9581C75.9681 48.0141 76.4376 48.0629 76.9222 48.0979C77.4181 48.1338 77.9711 48.158 78.4094 48.158V47.158C78.0016 47.158 77.4736 47.1352 76.9943 47.1006C76.5036 47.0651 76.1036 47.0199 75.9328 46.9819L75.7159 47.9581ZM78.4094 48.158C85.3498 48.158 90.3774 43.2437 90.3774 36.425H89.3774C89.3774 42.6723 84.8169 47.158 78.4094 47.158V48.158ZM90.3774 36.425C90.3774 31.4685 87.1608 27.324 82.0754 27.324V28.324C86.4839 28.324 89.3774 31.8875 89.3774 36.425H90.3774ZM82.0754 27.324C80.4728 27.324 78.9077 27.8351 77.6876 28.364C77.0739 28.63 76.5392 28.9043 76.1218 29.1283C75.6823 29.3642 75.4212 29.5165 75.2858 29.579L75.7049 30.487C75.875 30.4085 76.2132 30.2142 76.5947 30.0094C76.9984 29.7928 77.5064 29.5325 78.0854 29.2815C79.2505 28.7764 80.6699 28.324 82.0754 28.324V27.324ZM75.4954 29.533C75.4862 29.533 75.5072 29.5317 75.5392 29.55C75.5714 29.5685 75.5881 29.5916 75.5932 29.6004C75.5964 29.6059 75.5899 29.5966 75.5832 29.562C75.5768 29.5284 75.5724 29.4819 75.5724 29.422H74.5724C74.5724 29.6175 74.5973 29.8761 74.7278 30.1014C74.8827 30.369 75.1543 30.533 75.4954 30.533V29.533ZM75.5724 29.422C75.5724 28.847 75.661 28.1821 75.7573 27.3152L74.7634 27.2048C74.6717 28.0299 74.5724 28.775 74.5724 29.422H75.5724ZM75.7246 27.0743C75.6405 26.8641 75.4991 26.687 75.294 26.5716C75.0996 26.4622 74.8881 26.431 74.6964 26.431V27.431C74.7866 27.431 74.8102 27.4468 74.8037 27.4432C74.7993 27.4407 74.7937 27.4362 74.7898 27.4315C74.7864 27.4275 74.7898 27.43 74.7961 27.4457L75.7246 27.0743ZM74.4014 26.5273C73.2225 27.3887 71.0522 28.4993 69.8485 29.0085L70.2382 29.9295C71.4785 29.4047 73.7262 28.2592 74.9914 27.3347L74.4014 26.5273ZM69.7861 29.0403C69.4478 29.2433 69.3694 29.6298 69.3615 29.8571C69.3533 30.0954 69.4101 30.4358 69.6428 30.6686L70.3499 29.9614C70.3664 29.9779 70.3733 29.9903 70.3745 29.9925C70.3758 29.995 70.3738 29.9918 70.3709 29.9817C70.3645 29.9603 70.3597 29.9276 70.3609 29.8916C70.3615 29.8746 70.3634 29.8598 70.3658 29.848C70.3682 29.836 70.3706 29.8299 70.371 29.8289C70.3734 29.8232 70.3586 29.8629 70.3006 29.8977L69.7861 29.0403ZM69.719 30.731L70.142 31.013L70.6967 30.181L70.2737 29.899L69.719 30.731ZM70.142 31.013C70.782 31.4397 70.9714 31.636 71.066 31.8708C71.117 31.9974 71.1514 32.1654 71.1697 32.4351C71.1881 32.7074 71.1884 33.0464 71.1884 33.511H72.1884C72.1884 33.0591 72.1886 32.6813 72.1674 32.3676C72.146 32.0512 72.1011 31.764 71.9935 31.497C71.7709 30.9445 71.3257 30.6003 70.6967 30.181L70.142 31.013ZM71.1884 33.511V53.721H72.1884V33.511H71.1884ZM75.6664 34.169C75.6664 32.6124 75.8185 32.0779 76.1173 31.7126L75.3434 31.0794C74.7963 31.7481 74.6664 32.6236 74.6664 34.169H75.6664ZM76.0989 31.7339C76.4972 31.2994 77.8045 30.58 79.7254 30.58V29.58C77.6042 29.58 75.9975 30.3646 75.3618 31.0581L76.0989 31.7339ZM79.7254 30.58C81.6698 30.58 83.112 31.4466 84.0829 32.7519C85.0644 34.0714 85.5704 35.8527 85.5704 37.647H86.5704C86.5704 35.6813 86.0188 33.6791 84.8853 32.1551C83.7412 30.6169 82.011 29.58 79.7254 29.58V30.58ZM85.5704 37.647C85.5704 40.0218 85.0213 42.0278 84.0501 43.4246C83.0899 44.8055 81.7103 45.607 79.9604 45.607V46.607C82.0644 46.607 83.7398 45.6225 84.8711 43.9954C85.9914 42.3842 86.5704 40.1602 86.5704 37.647H85.5704ZM79.9604 45.607C79.046 45.607 77.7051 45.2946 76.8764 44.673L76.2764 45.473C77.3276 46.2614 78.9008 46.607 79.9604 46.607V45.607ZM76.8887 44.6826C76.4276 44.3137 76.1409 44.0352 75.9559 43.7022C75.7756 43.3776 75.6664 42.9528 75.6664 42.253H74.6664C74.6664 43.0572 74.7921 43.6664 75.0818 44.1878C75.3668 44.7008 75.7851 45.0803 76.264 45.4634L76.8887 44.6826ZM75.6664 42.253V34.169H74.6664V42.253H75.6664ZM103.77 13.677L104.269 13.6937L104.274 13.5669L104.217 13.4534L103.77 13.677ZM103.3 13.395V12.895H103.176L103.066 12.9528L103.3 13.395ZM98.2236 15.369L98.0713 14.8928L98.0161 14.9104L97.9664 14.9403L98.2236 15.369ZM98.2236 16.309L98.4809 15.8803V15.8802L98.2236 16.309ZM98.6936 16.591L98.4364 17.0197V17.0197L98.6936 16.591ZM98.3646 45.825L98.4293 46.3208L98.4316 46.3205L98.3646 45.825ZM97.2836 45.966L97.219 45.4702L97.0949 45.4864L96.993 45.5591L97.2836 45.966ZM97.3776 47.141L97.1807 47.6006L97.2911 47.6479L97.4109 47.6399L97.3776 47.141ZM106.449 47.141L106.418 47.6401L106.537 47.6473L106.646 47.6006L106.449 47.141ZM106.543 45.966L106.833 45.5591L106.73 45.4856L106.605 45.4699L106.543 45.966ZM105.415 45.825L105.346 46.3203L105.353 46.3211L105.415 45.825ZM104.129 19.505C104.129 17.4477 104.222 15.1091 104.269 13.6937L103.27 13.6603C103.223 15.0649 103.129 17.4263 103.129 19.505H104.129ZM104.217 13.4534C104.026 13.0725 103.649 12.895 103.3 12.895V13.895C103.305 13.895 103.31 13.8957 103.314 13.8968C103.318 13.8978 103.321 13.899 103.322 13.8996C103.323 13.9002 103.323 13.9002 103.322 13.8996C103.321 13.8988 103.322 13.8987 103.322 13.9006L104.217 13.4534ZM103.066 12.9528C101.42 13.8216 99.2546 14.5141 98.0713 14.8928L98.376 15.8452C99.5427 15.4719 101.795 14.7544 103.533 13.8372L103.066 12.9528ZM97.9664 14.9403C97.7656 15.0607 97.6675 15.2535 97.6197 15.39C97.5681 15.537 97.5474 15.6946 97.5474 15.839C97.5474 15.9834 97.5681 16.141 97.6197 16.288C97.6675 16.4245 97.7656 16.6173 97.9664 16.7377L98.4809 15.8802C98.5251 15.9068 98.5484 15.9361 98.5574 15.9489C98.5663 15.9618 98.5665 15.9663 98.5633 15.9569C98.5602 15.9483 98.556 15.933 98.5526 15.911C98.5493 15.8894 98.5474 15.8649 98.5474 15.839C98.5474 15.8131 98.5493 15.7886 98.5526 15.7669C98.556 15.745 98.5602 15.7297 98.5633 15.7211C98.5665 15.7117 98.5663 15.7162 98.5574 15.7291C98.5484 15.7419 98.5251 15.7712 98.4809 15.7977L97.9664 14.9403ZM97.9664 16.7377L98.4364 17.0197L98.9509 16.1623L98.4809 15.8803L97.9664 16.7377ZM98.4364 17.0197C99.1382 17.4408 99.3573 17.6456 99.4804 17.988C99.5506 18.1833 99.5968 18.4496 99.6222 18.8623C99.6475 19.2738 99.6507 19.7955 99.6507 20.492H100.651C100.651 19.802 100.648 19.2486 100.62 18.8009C100.593 18.3544 100.539 17.9774 100.421 17.6497C100.169 16.9464 99.6591 16.5872 98.9509 16.1623L98.4364 17.0197ZM99.6507 20.492V41.736H100.651V20.492H99.6507ZM99.6507 41.736C99.6507 42.5857 99.6475 43.2337 99.617 43.7394C99.5862 44.2514 99.5291 44.5679 99.4459 44.7749C99.3734 44.955 99.2839 45.0476 99.1459 45.1196C98.9792 45.2067 98.7245 45.2718 98.2977 45.3295L98.4316 46.3205C98.8743 46.2607 99.2776 46.179 99.6088 46.0061C99.9687 45.8181 100.217 45.5376 100.374 45.1479C100.52 44.785 100.583 44.3348 100.615 43.7996C100.648 43.2581 100.651 42.5783 100.651 41.736H99.6507ZM98.3 45.3292L97.219 45.4702L97.3483 46.4618L98.4293 46.3208L98.3 45.3292ZM96.993 45.5591C96.7916 45.703 96.686 45.9093 96.6335 46.0882C96.5802 46.2698 96.5695 46.4613 96.5862 46.6362C96.6028 46.8108 96.6491 46.9938 96.732 47.1572C96.8116 47.3141 96.9512 47.5022 97.1807 47.6006L97.5746 46.6814C97.6396 46.7093 97.6441 46.7447 97.6238 46.7047C97.6068 46.6713 97.5885 46.6135 97.5816 46.5413C97.5748 46.4694 97.5817 46.4083 97.5931 46.3696C97.6052 46.3282 97.6112 46.3465 97.5743 46.3729L96.993 45.5591ZM97.4109 47.6399C98.8088 47.5467 100.208 47.5 101.89 47.5V46.5C100.188 46.5 98.7665 46.5473 97.3444 46.6421L97.4109 47.6399ZM101.89 47.5C103.524 47.5 104.876 47.5466 106.418 47.6401L106.479 46.6419C104.919 46.5474 103.546 46.5 101.89 46.5V47.5ZM106.646 47.6006C106.875 47.5022 107.015 47.3141 107.094 47.1572C107.177 46.9938 107.224 46.8108 107.24 46.6362C107.257 46.4613 107.246 46.2698 107.193 46.0882C107.14 45.9093 107.035 45.703 106.833 45.5591L106.252 46.3729C106.215 46.3465 106.221 46.3282 106.233 46.3696C106.245 46.4083 106.252 46.4694 106.245 46.5413C106.238 46.6135 106.219 46.6713 106.203 46.7047C106.182 46.7447 106.187 46.7093 106.252 46.6814L106.646 47.6006ZM106.605 45.4699L105.477 45.3289L105.353 46.3211L106.481 46.4621L106.605 45.4699ZM105.483 45.3298C105.069 45.2722 104.82 45.2074 104.655 45.1205C104.517 45.0478 104.425 44.9533 104.349 44.7708C104.264 44.5631 104.203 44.2462 104.169 43.7359C104.135 43.2316 104.129 42.5842 104.129 41.736H103.129C103.129 42.5798 103.134 43.2601 103.171 43.8031C103.207 44.34 103.276 44.7897 103.425 45.152C103.585 45.5393 103.833 45.8179 104.189 46.0052C104.517 46.1782 104.914 46.2603 105.346 46.3202L105.483 45.3298ZM104.129 41.736V19.505H103.129V41.736H104.129ZM123.783 27.324C117.964 27.324 113.272 31.7748 113.272 37.976H114.272C114.272 32.3332 118.51 28.324 123.783 28.324V27.324ZM113.272 37.976C113.272 44.14 117.739 48.158 123.407 48.158V47.158C118.265 47.158 114.272 43.562 114.272 37.976H113.272ZM123.407 48.158C126.469 48.158 129.081 47.0533 130.927 45.1574C132.772 43.2629 133.824 40.6071 133.824 37.553H132.824C132.824 40.3739 131.855 42.7706 130.21 44.4598C128.567 46.1477 126.22 47.158 123.407 47.158V48.158ZM133.824 37.553C133.824 31.491 129.318 27.324 123.783 27.324V28.324C128.776 28.324 132.824 32.053 132.824 37.553H133.824ZM128.782 38.305C128.782 40.0696 128.471 41.9623 127.691 43.3947C126.927 44.8002 125.727 45.748 123.877 45.748V46.748C126.163 46.748 127.666 45.5338 128.57 43.8726C129.459 42.2382 129.782 40.1594 129.782 38.305H128.782ZM123.877 45.748C122.03 45.748 120.659 44.7323 119.725 43.1556C118.783 41.5657 118.314 39.439 118.314 37.365H117.314C117.314 39.568 117.808 41.8828 118.864 43.6652C119.928 45.4607 121.588 46.748 123.877 46.748V45.748ZM118.314 37.365C118.314 34.8473 118.876 32.9242 119.764 31.6461C120.643 30.381 121.847 29.734 123.219 29.734V28.734C121.489 28.734 119.99 29.5675 118.943 31.0754C117.904 32.5703 117.314 34.7127 117.314 37.365H118.314ZM123.219 29.734C125.218 29.734 126.588 30.8533 127.485 32.5095C128.391 34.1826 128.782 36.3613 128.782 38.305H129.782C129.782 36.2537 129.374 33.8969 128.365 32.0333C127.346 30.1527 125.685 28.734 123.219 28.734V29.734ZM142.304 45.825L142.382 46.3189L142.384 46.3186L142.304 45.825ZM141.411 45.966L141.333 45.4721L141.217 45.4905L141.121 45.5591L141.411 45.966ZM141.505 47.141L141.308 47.6006L141.421 47.6489L141.544 47.6395L141.505 47.141ZM151.046 47.141L151.025 47.6405L151.139 47.6454L151.243 47.6006L151.046 47.141ZM151.14 45.966L151.431 45.5591L151.319 45.4792L151.182 45.4677L151.14 45.966ZM149.448 45.825L149.49 45.3267L149.488 45.3266L149.448 45.825ZM148.179 31.725L147.775 31.4309L147.773 31.4344L148.179 31.725ZM151.939 31.537L151.662 31.953L151.676 31.9626L151.691 31.9711L151.939 31.537ZM147.709 30.644L147.486 31.0912L147.777 31.237L148.028 31.029L147.709 30.644ZM147.192 27.166L147.29 26.6757L147.101 26.6378L146.935 26.7373L147.192 27.166ZM142.445 29.469L142.281 28.9968L142.232 29.0137L142.188 29.0403L142.445 29.469ZM142.398 30.315L142.045 30.6686L142.08 30.7036L142.121 30.731L142.398 30.315ZM142.821 30.597L142.544 31.013V31.013L142.821 30.597ZM143.59 41.736C143.59 42.5858 143.587 43.2307 143.557 43.7326C143.526 44.2407 143.469 44.5521 143.386 44.7556C143.315 44.932 143.225 45.0258 143.083 45.1014C142.912 45.1921 142.654 45.2618 142.224 45.3314L142.384 46.3186C142.825 46.2472 143.225 46.1583 143.552 45.9846C143.907 45.7959 144.155 45.5195 144.313 45.1319C144.459 44.7714 144.523 44.325 144.555 43.7932C144.588 43.2552 144.59 42.5782 144.59 41.736H143.59ZM142.226 45.3311L141.333 45.4721L141.489 46.4599L142.382 46.3189L142.226 45.3311ZM141.121 45.5591C140.919 45.703 140.814 45.9093 140.761 46.0882C140.708 46.2698 140.697 46.4613 140.714 46.6362C140.731 46.8108 140.777 46.9938 140.86 47.1572C140.939 47.3141 141.079 47.5022 141.308 47.6006L141.702 46.6814C141.767 46.7093 141.772 46.7447 141.751 46.7047C141.735 46.6713 141.716 46.6135 141.709 46.5413C141.703 46.4694 141.709 46.4083 141.721 46.3696C141.733 46.3282 141.739 46.3465 141.702 46.3729L141.121 45.5591ZM141.544 47.6395C142.75 47.5468 144.146 47.5 145.829 47.5V46.5C144.129 46.5 142.705 46.5472 141.467 46.6425L141.544 47.6395ZM145.829 47.5C147.463 47.5 148.818 47.5466 151.025 47.6405L151.068 46.6415C148.857 46.5474 147.485 46.5 145.829 46.5V47.5ZM151.243 47.6006C151.473 47.5022 151.612 47.3141 151.692 47.1572C151.775 46.9938 151.821 46.8108 151.838 46.6362C151.855 46.4613 151.844 46.2698 151.791 46.0882C151.738 45.9093 151.632 45.703 151.431 45.5591L150.85 46.3729C150.813 46.3465 150.819 46.3282 150.831 46.3696C150.842 46.4083 150.849 46.4694 150.842 46.5413C150.836 46.6135 150.817 46.6713 150.8 46.7047C150.78 46.7447 150.784 46.7093 150.849 46.6814L151.243 47.6006ZM151.182 45.4677L149.49 45.3267L149.407 46.3233L151.099 46.4643L151.182 45.4677ZM149.488 45.3266C149.054 45.2923 148.791 45.2355 148.619 45.1523C148.474 45.0826 148.378 44.9875 148.299 44.8013C148.209 44.5895 148.146 44.2655 148.11 43.7482C148.074 43.2372 148.068 42.5843 148.068 41.736H147.068C147.068 42.5797 147.074 43.2663 147.112 43.8172C147.15 44.3618 147.221 44.8221 147.378 45.1919C147.546 45.5874 147.808 45.8712 148.184 46.0527C148.531 46.2206 148.95 46.2872 149.409 46.3234L149.488 45.3266ZM148.068 41.736V35.344H147.068V41.736H148.068ZM148.068 35.344C148.068 34.5563 148.103 33.8441 148.192 33.2566C148.283 32.6554 148.421 32.2463 148.586 32.0156L147.773 31.4344C147.467 31.8617 147.3 32.4631 147.203 33.1074C147.104 33.7654 147.068 34.5337 147.068 35.344H148.068ZM148.584 32.0191C148.9 31.5845 149.33 31.285 149.871 31.285V30.285C148.909 30.285 148.211 30.8315 147.775 31.4309L148.584 32.0191ZM149.871 31.285C150.391 31.285 150.999 31.511 151.662 31.953L152.217 31.121C151.47 30.623 150.667 30.285 149.871 30.285V31.285ZM151.691 31.9711C152.029 32.164 152.363 32.366 152.973 32.366V31.366C152.644 31.366 152.508 31.286 152.187 31.1029L151.691 31.9711ZM152.973 32.366C153.466 32.366 154.086 32.1726 154.588 31.7489C155.108 31.3111 155.494 30.6327 155.494 29.704H154.494C154.494 30.3263 154.247 30.7289 153.944 30.9843C153.624 31.2539 153.233 31.366 152.973 31.366V32.366ZM155.494 29.704C155.494 28.2325 154.258 27.324 152.879 27.324V28.324C153.851 28.324 154.494 28.9195 154.494 29.704H155.494ZM152.879 27.324C151.875 27.324 150.899 27.7427 149.997 28.2969C149.093 28.8531 148.208 29.5812 147.39 30.259L148.028 31.029C148.855 30.3438 149.686 29.6619 150.521 29.1488C151.359 28.6338 152.145 28.324 152.879 28.324V27.324ZM147.933 30.1968C147.987 30.2237 148.024 30.2599 148.048 30.2911C148.07 30.3203 148.077 30.342 148.078 30.3449C148.079 30.348 148.076 30.3404 148.073 30.3176C148.071 30.2954 148.068 30.2637 148.068 30.221H147.068C147.068 30.3648 147.082 30.5189 147.129 30.6611C147.177 30.8047 147.278 30.9875 147.486 31.0912L147.933 30.1968ZM148.068 30.221V27.495H147.068V30.221H148.068ZM148.068 27.495C148.068 27.2538 147.968 27.0402 147.785 26.8906C147.628 26.7618 147.44 26.7056 147.29 26.6757L147.094 27.6563C147.132 27.6639 147.155 27.6712 147.166 27.6755C147.177 27.68 147.169 27.6784 147.152 27.6646C147.133 27.6491 147.108 27.6222 147.09 27.5833C147.072 27.5448 147.068 27.5119 147.068 27.495H148.068ZM146.935 26.7373C145.78 27.4304 143.321 28.6352 142.281 28.9968L142.61 29.9412C143.732 29.5508 146.255 28.3116 147.45 27.5947L146.935 26.7373ZM142.188 29.0403C141.85 29.2433 141.771 29.6298 141.764 29.8571C141.755 30.0954 141.812 30.4358 142.045 30.6686L142.752 29.9614C142.768 29.9779 142.775 29.9903 142.777 29.9925C142.778 29.995 142.776 29.9918 142.773 29.9817C142.767 29.9603 142.762 29.9276 142.763 29.8916C142.764 29.8746 142.765 29.8598 142.768 29.848C142.77 29.836 142.773 29.8299 142.773 29.8289C142.775 29.8232 142.761 29.8629 142.703 29.8977L142.188 29.0403ZM142.121 30.731L142.544 31.013L143.099 30.181L142.676 29.899L142.121 30.731ZM142.544 31.013C143.184 31.4397 143.373 31.636 143.468 31.8708C143.519 31.9974 143.553 32.1654 143.572 32.4351C143.59 32.7074 143.59 33.0464 143.59 33.511H144.59C144.59 33.0591 144.591 32.6813 144.569 32.3676C144.548 32.0512 144.503 31.764 144.396 31.497C144.173 30.9445 143.728 30.6003 143.099 30.181L142.544 31.013ZM143.59 33.511V41.736H144.59V33.511H143.59ZM176.709 34.639L176.262 34.4154V34.4154L176.709 34.639ZM162.75 44.556L163.147 44.2527L163.146 44.2511L162.75 44.556ZM176.944 43.287L177.394 43.5053L177.457 43.3753L177.441 43.2318L176.944 43.287ZM176.098 42.723L175.954 42.2441L175.804 42.2891L175.706 42.4119L176.098 42.723ZM164.489 33.323L163.989 33.3079L163.989 33.3154V33.323H164.489ZM173.043 33.088L172.766 32.672L172.754 32.6797L172.743 32.688L173.043 33.088ZM173.936 35.468C174.917 35.468 175.603 35.4568 176.064 35.4063C176.293 35.3812 176.502 35.3431 176.676 35.2749C176.856 35.2042 177.046 35.082 177.156 34.8626L176.262 34.4154C176.301 34.337 176.356 34.3264 176.311 34.3439C176.26 34.3638 176.155 34.3903 175.955 34.4122C175.559 34.4557 174.929 34.468 173.936 34.468V35.468ZM177.156 34.8626C177.3 34.5744 177.397 34.1088 177.397 33.417H176.397C176.397 34.0412 176.306 34.3276 176.262 34.4154L177.156 34.8626ZM177.397 33.417C177.397 30.2721 174.49 27.324 170.223 27.324V28.324C174.04 28.324 176.397 30.9219 176.397 33.417H177.397ZM170.223 27.324C164.237 27.324 160.276 32.4639 160.276 38.446H161.276C161.276 32.8661 164.929 28.324 170.223 28.324V27.324ZM160.276 38.446C160.276 40.6009 160.863 42.9236 162.354 44.8609L163.146 44.2511C161.816 42.5224 161.276 40.4271 161.276 38.446H160.276ZM162.352 44.8593C163.815 46.7764 166.363 48.158 169.565 48.158V47.158C166.657 47.158 164.41 45.9076 163.147 44.2527L162.352 44.8593ZM169.565 48.158C172.13 48.158 175.732 46.9288 177.394 43.5053L176.494 43.0687C175.053 46.0372 171.887 47.158 169.565 47.158V48.158ZM177.441 43.2318C177.405 42.908 177.254 42.5914 176.972 42.3877C176.68 42.1779 176.315 42.136 175.954 42.2441L176.242 43.2019C176.299 43.1845 176.336 43.1851 176.355 43.1876C176.372 43.19 176.381 43.195 176.387 43.1993C176.398 43.2071 176.436 43.243 176.447 43.3422L177.441 43.2318ZM175.706 42.4119C175.01 43.2876 174.372 43.8077 173.751 44.1132C173.132 44.4172 172.496 44.526 171.774 44.526V45.526C172.603 45.526 173.4 45.3998 174.192 45.0106C174.98 44.6228 175.728 43.9914 176.489 43.0341L175.706 42.4119ZM171.774 44.526C169.407 44.526 167.598 43.5808 166.373 42.0936C165.138 40.5959 164.472 38.518 164.472 36.237H163.472C163.472 38.703 164.192 41.0196 165.601 42.7296C167.019 44.4502 169.112 45.526 171.774 45.526V44.526ZM164.472 36.237C164.472 35.936 164.476 35.7446 164.494 35.6099C164.512 35.4763 164.535 35.4811 164.508 35.5092C164.479 35.5387 164.472 35.5155 164.603 35.4952C164.736 35.4747 164.932 35.468 165.241 35.468V34.468C164.939 34.468 164.67 34.4731 164.451 34.5069C164.23 34.541 163.981 34.6147 163.788 34.8146C163.597 35.013 163.532 35.2616 163.503 35.4761C163.474 35.6895 163.472 35.9505 163.472 36.237H164.472ZM165.241 35.468H173.936V34.468H165.241V35.468ZM164.818 33.058C164.768 33.058 164.761 33.0522 164.779 33.0579C164.801 33.065 164.855 33.088 164.906 33.1465C164.958 33.2054 164.978 33.2671 164.985 33.3039C164.99 33.332 164.989 33.3527 164.989 33.323H163.989C163.989 33.346 163.972 33.5975 164.154 33.805C164.339 34.0172 164.607 34.058 164.818 34.058V33.058ZM164.989 33.3381C164.997 33.0657 165.113 32.7007 165.362 32.2877C165.607 31.8809 165.963 31.4576 166.403 31.074C167.289 30.3028 168.47 29.734 169.706 29.734V28.734C168.169 28.734 166.764 29.4342 165.747 30.3197C165.236 30.7645 164.81 31.2665 164.506 31.7718C164.205 32.2709 164.004 32.8048 163.989 33.3079L164.989 33.3381ZM169.706 29.734C170.965 29.734 171.73 30.1107 172.18 30.5709C172.638 31.0378 172.825 31.6445 172.825 32.195H173.825C173.825 31.4295 173.565 30.5557 172.895 29.8711C172.218 29.1798 171.173 28.734 169.706 28.734V29.734ZM172.825 32.195C172.825 32.4687 172.792 32.599 172.771 32.6532C172.762 32.677 172.756 32.682 172.759 32.6781C172.763 32.6737 172.767 32.671 172.766 32.672L173.32 33.504C173.471 33.4033 173.61 33.2531 173.702 33.0176C173.787 32.8015 173.825 32.5323 173.825 32.195H172.825ZM172.743 32.688C172.673 32.7407 172.443 32.85 171.707 32.9318C170.995 33.0109 169.889 33.058 168.155 33.058V34.058C169.898 34.058 171.049 34.0111 171.817 33.9257C172.562 33.843 173.037 33.7173 173.343 33.488L172.743 32.688ZM168.155 33.058H164.818V34.058H168.155V33.058Z" fill="white"/>
</g>
<defs>
<filter id="filter0_d" x="0.115295" y="0.894989" width="189.341" height="70.7384" filterUnits="userSpaceOnUse" color-interpolation-filters="sRGB">
<feFlood flood-opacity="0" result="BackgroundImageFix"/>
<feColorMatrix in="SourceAlpha" type="matrix" values="0 0 0 0 0 0 0 0 0 0 0 0 0 0 0 0 0 0 127 0"/>
<feOffset/>
<feGaussianBlur stdDeviation="6"/>
<feColorMatrix type="matrix" values="0 0 0 0 0 0 0 0 0 0 0 0 0 0 0 0 0 0 1 0"/>
<feBlend mode="normal" in2="BackgroundImageFix" result="effect1_dropShadow"/>
<feBlend mode="normal" in="SourceGraphic" in2="effect1_dropShadow" result="shape"/>
</filter>
</defs>
</svg>
