<svg width="233" height="29" viewBox="0 0 233 29" fill="none" xmlns="http://www.w3.org/2000/svg">
<path d="M0.722656 27.332V26.627C0.722656 24.5117 0.747396 21.3883 0.796875 17.2568C0.846354 13.1253 0.871094 10.002 0.871094 7.88672V0.205078H22.4688V6.29102C22.4688 6.32812 22.4688 6.4209 22.4688 6.56934C22.4688 6.71777 22.4688 6.81673 22.4688 6.86621C22.4688 6.91569 22.4626 7.00846 22.4502 7.14453C22.4378 7.26823 22.4131 7.35482 22.376 7.4043C22.3512 7.45378 22.3079 7.52799 22.2461 7.62695C22.1966 7.71354 22.1348 7.77539 22.0605 7.8125C21.9863 7.84961 21.8874 7.88672 21.7637 7.92383C21.64 7.94857 21.5039 7.96094 21.3555 7.96094H20.8359C17.6322 7.96094 14.7129 7.91146 12.0781 7.8125C12.0534 8.01042 12.0101 8.31966 11.9482 8.74023C11.8988 9.14844 11.8555 9.51335 11.8184 9.83496C11.7936 10.1442 11.7812 10.4473 11.7812 10.7441H20.6133C20.9844 10.7441 21.2318 10.7936 21.3555 10.8926C21.4792 10.9915 21.541 11.1523 21.541 11.375C21.541 11.4368 21.5348 11.5358 21.5225 11.6719C21.5101 11.8079 21.5039 11.9069 21.5039 11.9688C21.5039 12.5625 21.5225 13.4408 21.5596 14.6035C21.5967 15.7663 21.6152 16.6445 21.6152 17.2383C21.5781 17.4857 21.4792 17.6094 21.3184 17.6094C21.2441 17.6094 21.1823 17.5846 21.1328 17.5352C17.224 17.7331 14.3294 17.832 12.4492 17.832H11.9668V20.5039C13.0677 20.5039 14.6572 20.4544 16.7354 20.3555C18.8258 20.2565 20.3906 20.207 21.4297 20.207C22.2461 20.207 22.7161 20.3802 22.8398 20.7266V22.1367C22.8398 22.7305 22.8522 23.6087 22.877 24.7715C22.9017 25.9342 22.9141 26.8125 22.9141 27.4062C22.9141 28.0247 22.6667 28.334 22.1719 28.334C21.5286 28.334 20.5391 28.3278 19.2031 28.3154C17.8672 28.3031 16.8529 28.2969 16.1602 28.2969C14.3789 28.2969 11.8307 28.3402 8.51562 28.4268C5.20052 28.5257 2.80078 28.5814 1.31641 28.5938L0.796875 28C0.747396 27.6536 0.722656 27.431 0.722656 27.332ZM32.4502 26.5156L40.1689 14.5664L33.3223 3.73047L33.5635 3.09961C33.5511 3.08724 33.4893 3.05013 33.3779 2.98828C33.279 2.92643 33.2295 2.87695 33.2295 2.83984C33.2295 2.67904 33.3532 2.5306 33.6006 2.39453H34.6025C36.0622 2.39453 37.1755 2.38216 37.9424 2.35742H39.0557C39.7855 2.35742 40.5029 2.39453 41.208 2.46875H41.9502C42.0615 2.46875 42.2347 2.47493 42.4697 2.4873C42.7048 2.49967 42.8779 2.50586 42.9893 2.50586C43.0511 2.50586 43.1377 2.49967 43.249 2.4873C43.3604 2.47493 43.4469 2.46875 43.5088 2.46875C43.6572 2.50586 43.7747 2.58626 43.8613 2.70996C43.9479 2.82129 44.0283 2.9821 44.1025 3.19238C44.1768 3.40267 44.2262 3.53255 44.251 3.58203C44.3128 3.7181 44.4613 4.05208 44.6963 4.58398C44.9313 5.10352 45.1045 5.51172 45.2158 5.80859V5.77148C45.3024 5.93229 45.4137 6.16732 45.5498 6.47656C45.6982 6.77344 45.7972 6.97135 45.8467 7.07031L46.4775 8.36914C46.5146 8.43099 46.5394 8.48665 46.5518 8.53613C46.5641 8.58561 46.5889 8.64128 46.626 8.70312C46.7497 8.40625 47.3063 7.19401 48.2959 5.06641L48.9268 3.80469C49.3473 2.96354 49.6442 2.54297 49.8174 2.54297H58.7979C58.9587 2.60482 59.1195 2.64811 59.2803 2.67285C59.4411 2.68522 59.5462 2.70378 59.5957 2.72852C59.6452 2.74089 59.6823 2.79655 59.707 2.89551C59.7441 2.99447 59.7627 3.16146 59.7627 3.39648L58.9463 4.62109C58.0804 5.87044 56.8991 7.67643 55.4023 10.0391C53.918 12.3893 52.9346 13.9355 52.4521 14.6777L60.0225 26.5156C60.0225 26.7878 59.9235 26.9733 59.7256 27.0723C59.54 27.1712 59.2679 27.2207 58.9092 27.2207H49.0752C48.8031 26.6641 48.3206 25.6436 47.6279 24.1592C46.9476 22.6748 46.4157 21.5553 46.0322 20.8008C45.9333 20.9987 45.6921 21.5182 45.3086 22.3594C44.9375 23.2005 44.6221 23.887 44.3623 24.4189C44.1025 24.9385 43.7809 25.4951 43.3975 26.0889C43.0264 26.6702 42.6924 27.0475 42.3955 27.2207C41.9502 27.2207 41.3008 27.2145 40.4473 27.2021C39.6061 27.1898 38.9691 27.1836 38.5361 27.1836H37.8682C37.5837 27.1836 37.1012 27.1712 36.4209 27.1465C35.7529 27.1217 35.2458 27.1094 34.8994 27.1094H33.1182C32.6729 26.9609 32.4502 26.763 32.4502 26.5156ZM71.4512 27.2578L71.0615 14.9004C71.0615 14.0469 71.0739 13.082 71.0986 12.0059C71.1234 10.9297 71.1543 9.95866 71.1914 9.09277C71.2285 8.22689 71.2594 7.24349 71.2842 6.14258C71.3213 5.04167 71.3398 4.03971 71.3398 3.13672C71.3398 2.88932 71.4202 2.7347 71.5811 2.67285C71.7542 2.59863 71.9645 2.57389 72.2119 2.59863C72.4717 2.62337 72.7624 2.60482 73.084 2.54297H86.3691C87.1237 2.54297 87.8783 2.64193 88.6328 2.83984C89.3874 3.02539 90.1234 3.33464 90.8408 3.76758C91.5706 4.18815 92.2077 4.70768 92.752 5.32617C93.3086 5.93229 93.7539 6.69303 94.0879 7.6084C94.4342 8.52376 94.6074 9.5319 94.6074 10.6328C94.6074 12.0924 94.2982 13.3913 93.6797 14.5293C93.0612 15.6549 92.1335 16.7188 90.8965 17.7207C89.375 18.5124 87.5443 18.9701 85.4043 19.0938H84.8105C84.3158 19.1927 83.821 19.2422 83.3262 19.2422H81.8418C81.7676 19.2422 81.7057 19.2546 81.6562 19.2793C81.6562 22.5202 81.7057 24.9694 81.8047 26.627C81.7428 26.8743 81.6068 27.0413 81.3965 27.1279C81.1986 27.2145 80.8522 27.2578 80.3574 27.2578H71.4512ZM80.7285 13.082V13.416C80.7409 13.4284 80.8213 13.4717 80.9697 13.5459C81.1305 13.6077 81.2109 13.651 81.2109 13.6758V13.7129C81.1862 13.7129 81.1738 13.6882 81.1738 13.6387C81.1986 13.6634 81.2728 13.6758 81.3965 13.6758C82.4974 13.6758 83.4251 13.4284 84.1797 12.9336C84.9466 12.4388 85.3301 11.6719 85.3301 10.6328C85.3301 10.1628 85.2497 9.76074 85.0889 9.42676C84.9281 9.09277 84.7301 8.83919 84.4951 8.66602C84.2725 8.48047 83.9632 8.3444 83.5674 8.25781C83.1839 8.15885 82.8314 8.09701 82.5098 8.07227C82.1882 8.04753 81.7799 8.03516 81.2852 8.03516C81.2728 8.04753 81.2233 8.09082 81.1367 8.16504C81.0501 8.23926 80.9883 8.29492 80.9512 8.33203V10.2617C80.8027 11.4492 80.7285 12.3893 80.7285 13.082ZM106.834 27.2578C106.797 27.2083 106.735 27.1527 106.648 27.0908C106.574 27.029 106.488 26.9115 106.389 26.7383V18.7227C106.389 17.6712 106.432 16.057 106.519 13.8799C106.605 11.7028 106.648 10.0514 106.648 8.92578C106.648 8.67839 106.624 8.15267 106.574 7.34863C106.525 6.5446 106.5 5.90755 106.5 5.4375C106.5 3.69336 106.71 2.62956 107.131 2.24609C109.704 2.29557 111.621 2.32031 112.883 2.32031H114.664C115.085 2.32031 115.406 2.33268 115.629 2.35742C115.654 2.33268 115.715 2.32031 115.814 2.32031C115.839 2.32031 115.944 2.33268 116.13 2.35742C116.328 2.38216 116.482 2.39453 116.594 2.39453C116.903 2.43164 117.163 2.69141 117.373 3.17383V3.43359C117.373 3.56966 117.367 3.76758 117.354 4.02734C117.342 4.28711 117.336 4.48503 117.336 4.62109V5.4375C117.324 5.49935 117.243 5.61068 117.095 5.77148C116.959 5.91992 116.891 6.04362 116.891 6.14258V19.6875H124.758C124.956 19.6875 125.104 19.6937 125.203 19.7061C125.302 19.7184 125.401 19.7741 125.5 19.873C125.599 19.972 125.648 20.1204 125.648 20.3184V26.5156C125.549 27.0104 124.956 27.2578 123.867 27.2578H106.834ZM136.131 14.5664L136.094 14.1582C136.329 12.1419 136.551 10.738 136.762 9.94629C137.244 8.09082 138.11 6.53841 139.359 5.28906L139.805 4.84375C140.398 4.15104 141.301 3.55729 142.514 3.0625H143.219C144.431 2.55534 146.423 2.08529 149.193 1.65234C149.886 1.65234 150.61 1.70801 151.364 1.81934C152.131 1.91829 152.979 2.09147 153.906 2.33887C154.834 2.57389 155.725 2.95736 156.578 3.48926C157.444 4.00879 158.161 4.63346 158.73 5.36328V5.88281C160.759 8.41862 161.773 11.2637 161.773 14.418C161.773 17.9681 160.957 20.8626 159.324 23.1016L158.582 24.0293C158.013 24.7344 157.302 25.3405 156.448 25.8477C155.607 26.3548 154.71 26.7445 153.758 27.0166C152.805 27.2764 151.89 27.4619 151.012 27.5732C150.146 27.6846 149.28 27.7402 148.414 27.7402C147.14 27.7402 145.922 27.5918 144.759 27.2949C143.608 26.9857 142.526 26.5094 141.512 25.8662C140.51 25.223 139.625 24.4313 138.858 23.4912C138.091 22.5511 137.467 21.4193 136.984 20.0957C136.514 18.7598 136.23 17.2878 136.131 15.6797V14.5664ZM146.336 14.7148C146.336 19.069 147.165 21.2461 148.822 21.2461C149.28 21.2461 149.676 21.1595 150.01 20.9863C150.356 20.8132 150.634 20.5472 150.845 20.1885C151.055 19.8298 151.228 19.4648 151.364 19.0938C151.5 18.7227 151.593 18.2588 151.643 17.7021C151.704 17.1455 151.742 16.6569 151.754 16.2363C151.779 15.8158 151.791 15.3086 151.791 14.7148V14.0469C151.791 13.4036 151.754 12.7852 151.68 12.1914C151.605 11.5977 151.476 11.0039 151.29 10.4102C151.117 9.80404 150.845 9.32161 150.474 8.96289C150.103 8.5918 149.651 8.40625 149.119 8.40625C147.264 8.40625 146.336 10.237 146.336 13.8984V14.7148ZM174.445 2.46875H177.896C178.96 2.46875 180.661 2.44401 182.999 2.39453C185.337 2.34505 187.087 2.32031 188.25 2.32031C189.252 2.32031 190.186 2.37598 191.052 2.4873C191.93 2.59863 192.79 2.80273 193.631 3.09961C194.484 3.39648 195.208 3.77376 195.802 4.23145C196.408 4.68913 196.896 5.29525 197.268 6.0498C197.639 6.79199 197.824 7.65169 197.824 8.62891C197.824 9.97721 197.509 11.1276 196.878 12.0801C196.247 13.0326 195.276 13.8366 193.965 14.4922C194.484 14.7148 194.936 15.0055 195.319 15.3643C195.703 15.723 195.993 16.0322 196.191 16.292C196.402 16.5518 196.6 16.9909 196.785 17.6094C196.983 18.2155 197.101 18.6175 197.138 18.8154C197.175 19.001 197.255 19.471 197.379 20.2256C197.416 20.3988 197.441 20.5286 197.453 20.6152C197.503 21.11 197.713 22.0192 198.084 23.3428C198.455 24.654 198.641 25.6621 198.641 26.3672C198.641 26.8125 198.505 27.0352 198.232 27.0352C197.49 27.0352 196.365 27.0413 194.855 27.0537C193.359 27.0661 192.245 27.0723 191.516 27.0723C191.219 27.0475 190.773 27.0352 190.18 27.0352H188.918C188.671 26.9609 188.429 26.5775 188.194 25.8848C187.959 25.1921 187.792 24.4128 187.693 23.5469L187.285 20.2441C187.211 19.972 187.149 19.7803 187.1 19.6689C187.062 19.5452 186.988 19.403 186.877 19.2422C186.766 19.069 186.611 18.9515 186.413 18.8896C186.228 18.8278 185.986 18.7969 185.689 18.7969H184.836V26.2188C184.836 26.2559 184.836 26.3177 184.836 26.4043C184.836 26.4785 184.836 26.5342 184.836 26.5713C184.836 26.596 184.836 26.6393 184.836 26.7012C184.836 26.763 184.83 26.8125 184.817 26.8496C184.805 26.8743 184.793 26.9115 184.78 26.9609C184.768 27.0104 184.749 27.0475 184.725 27.0723C184.712 27.0846 184.688 27.1094 184.65 27.1465C184.626 27.1712 184.589 27.1898 184.539 27.2021C184.502 27.2145 184.452 27.2269 184.391 27.2393C184.341 27.2516 184.279 27.2578 184.205 27.2578H174.445V2.46875ZM184.947 12.2656C184.972 12.2904 185.009 12.346 185.059 12.4326C185.108 12.5068 185.158 12.5687 185.207 12.6182C185.257 12.6676 185.306 12.6986 185.355 12.7109C185.727 12.7109 186.098 12.6738 186.469 12.5996C186.84 12.513 187.217 12.377 187.601 12.1914C187.996 12.0059 188.312 11.7214 188.547 11.3379C188.794 10.9544 188.918 10.4967 188.918 9.96484C188.918 8.67839 187.681 8.03516 185.207 8.03516C184.96 8.09701 184.836 8.19596 184.836 8.33203V9.03711C184.836 9.39583 184.854 9.93392 184.892 10.6514C184.929 11.3688 184.947 11.9069 184.947 12.2656ZM210.459 27.332V26.627C210.459 24.5117 210.484 21.3883 210.533 17.2568C210.583 13.1253 210.607 10.002 210.607 7.88672V0.205078H232.205V6.29102C232.205 6.32812 232.205 6.4209 232.205 6.56934C232.205 6.71777 232.205 6.81673 232.205 6.86621C232.205 6.91569 232.199 7.00846 232.187 7.14453C232.174 7.26823 232.149 7.35482 232.112 7.4043C232.088 7.45378 232.044 7.52799 231.982 7.62695C231.933 7.71354 231.871 7.77539 231.797 7.8125C231.723 7.84961 231.624 7.88672 231.5 7.92383C231.376 7.94857 231.24 7.96094 231.092 7.96094H230.572C227.368 7.96094 224.449 7.91146 221.814 7.8125C221.79 8.01042 221.746 8.31966 221.685 8.74023C221.635 9.14844 221.592 9.51335 221.555 9.83496C221.53 10.1442 221.518 10.4473 221.518 10.7441H230.35C230.721 10.7441 230.968 10.7936 231.092 10.8926C231.215 10.9915 231.277 11.1523 231.277 11.375C231.277 11.4368 231.271 11.5358 231.259 11.6719C231.246 11.8079 231.24 11.9069 231.24 11.9688C231.24 12.5625 231.259 13.4408 231.296 14.6035C231.333 15.7663 231.352 16.6445 231.352 17.2383C231.314 17.4857 231.215 17.6094 231.055 17.6094C230.98 17.6094 230.919 17.5846 230.869 17.5352C226.96 17.7331 224.066 17.832 222.186 17.832H221.703V20.5039C222.804 20.5039 224.394 20.4544 226.472 20.3555C228.562 20.2565 230.127 20.207 231.166 20.207C231.982 20.207 232.452 20.3802 232.576 20.7266V22.1367C232.576 22.7305 232.589 23.6087 232.613 24.7715C232.638 25.9342 232.65 26.8125 232.65 27.4062C232.65 28.0247 232.403 28.334 231.908 28.334C231.265 28.334 230.275 28.3278 228.939 28.3154C227.604 28.3031 226.589 28.2969 225.896 28.2969C224.115 28.2969 221.567 28.3402 218.252 28.4268C214.937 28.5257 212.537 28.5814 211.053 28.5938L210.533 28C210.484 27.6536 210.459 27.431 210.459 27.332Z" fill="#E2E7F3"/>
</svg>
