<svg width="22" height="21" viewBox="0 0 22 21" fill="none" xmlns="http://www.w3.org/2000/svg">
<path d="M0 20.2114V18.0248C0 18.0248 5.5 15.8381 11 15.8381C16.5 15.8381 22 18.0248 22 18.0248V20.2114H0ZM10.23 6.10748C8.91 1.8435 2.2 2.82749 2.2 2.82749C2.2 2.82749 2.42 11.3555 8.69 10.0435C8.25 6.87281 6.6 5.99815 6.6 5.99815C9.68 5.99815 9.9 9.71546 9.9 9.71546V14.7448C10.23 14.7448 10.67 14.7448 11 14.7448C11.33 14.7448 11.77 14.7448 12.1 14.7448V10.1528C12.1 10.1528 12.1 5.88881 15.4 4.79548C15.4 4.79548 13.2 8.07547 13.2 10.2621C20.9 11.0275 20.9 0.5315 20.9 0.5315C20.9 0.5315 11.11 -0.561829 10.23 6.10748Z" fill="#041841"/>
</svg>
